<svg width="104"
     height="123"
     viewBox="0 0 104 123"
     fill="none"
     xmlns="http://www.w3.org/2000/svg">
    <path fill-rule="evenodd"
          clip-rule="evenodd"
          d="M17.16 0H99.88C100.757 0.00263778 101.597 0.352216 102.218 0.97239C102.838 1.59257 103.187 2.43294 103.19 3.31V95.63C103.04 98.21 99.71 98.27 96.11 98.11H15.94C10.96 98.11 6.89 102.18 6.89 107.16C6.89 112.14 10.96 116.21 15.94 116.21H96.11V106.58H103.19V118.82C103.19 121.05 101.37 122.87 99.14 122.87H16.29C7.33 122.88 0 115.55 0 106.59V17.16C0 7.72 7.72 0 17.16 0ZM20.35 13.4H23.21C24.67 13.4 25.87 14.37 25.87 15.55V83.02C25.87 84.2 24.67 85.17 23.21 85.17H20.35C18.89 85.17 17.69 84.2 17.69 83.02V15.55C17.7 14.36 18.89 13.4 20.35 13.4Z"
          fill="black" />
</svg>