<svg width="64"
     height="57"
     viewBox="0 0 64 57"
     fill="none"
     xmlns="http://www.w3.org/2000/svg">
    <path fill-rule="evenodd"
          clip-rule="evenodd"
          d="M0.598447 0H63.4031C63.7318 0 64 0.268318 64 0.595169V15.2972C64 15.6256 63.7313 15.8924 63.4031 15.8924H0.598447C0.269796 15.8924 0 15.6256 0 15.2972V0.595169C0 0.268318 0.269796 0 0.598447 0ZM3.76256 19.0553H60.239C60.513 19.0553 60.7401 19.278 60.7401 19.553V56.5017C60.7401 56.7757 60.513 57 60.239 57H3.76256C3.48756 57 3.26203 56.7757 3.26203 56.5017V19.5536C3.26203 19.278 3.48704 19.0553 3.76256 19.0553ZM23.4405 25.1359H40.5606C42.3986 25.1359 43.9038 26.6319 43.9038 28.4599C43.9038 30.2878 42.3986 31.7833 40.5606 31.7833H23.4405C21.6009 31.7833 20.0972 30.2878 20.0972 28.4599C20.0972 26.6319 21.6014 25.1359 23.4405 25.1359Z"
          fill="black" />
</svg>