<svg width="123"
     height="113"
     viewBox="0 0 123 113"
     fill="none"
     xmlns="http://www.w3.org/2000/svg">
    <path fill-rule="evenodd"
          clip-rule="evenodd"
          d="M8.872 8.869C-2.956 20.694 -2.958 40.039 8.87 51.864L53.433 96.43C58.306 96.704 60.95 94.661 60.488 89.375L16.287 45.172C8.342 37.227 8.342 24.231 16.287 16.285C24.23 8.343 37.23 8.34 45.176 16.283C66.446 37.553 87.718 58.826 108.983 80.093C114.018 85.125 114.301 93.784 109.262 98.823C104.227 103.859 95.606 103.544 90.569 98.508C74.424 82.364 58.402 66.342 42.256 50.197C40.021 47.962 39.907 44.191 42.143 41.952C44.377 39.716 48.152 39.832 50.388 42.065L79.092 70.77C84.293 71.181 86.526 68.632 86.274 63.589L57.569 34.884C51.381 28.696 41.261 28.696 35.077 34.882C28.887 41.07 28.893 51.197 35.075 57.378L54.737 77.042L64.006 86.312L83.207 105.511C92.184 114.489 107.437 115.051 116.414 106.071C125.396 97.09 124.836 81.841 115.855 72.861L87.387 44.392V44.394L51.862 8.869C40.039 -2.958 20.693 -2.954 8.872 8.869Z"
          fill="black" />
</svg>