<svg width="72"
     height="73"
     viewBox="0 0 72 73"
     fill="none"
     xmlns="http://www.w3.org/2000/svg">
    <g>
        <path d="M10.7913 59.6162C12.0554 60.1107 13.399 60.3709 14.6848 60.8014C14.6821 60.7861 14.6796 60.7708 14.6769 60.7554C14.7093 60.651 14.7418 60.5465 14.774 60.4417C14.9414 60.3831 15.109 60.3248 15.2764 60.2662C14.113 59.8555 12.7755 59.4969 11.6579 58.9961C11.3637 59.2367 11.2407 59.5555 10.7913 59.6162Z"
              fill="#07679b" />
        <path d="M67.2377 18.517C65.409 16.0737 61.7716 15.0526 59.0559 14.0647C55.8843 12.9111 53.0202 11.3301 49.7809 10.2875C49.948 10.5788 49.586 10.9368 49.36 11.0516C52.446 12.279 55.5379 13.4379 58.6475 14.5888C60.1423 15.142 61.6344 15.5884 63.0243 16.3894C63.2175 16.501 66.9606 19.8303 65.8147 19.8916C65.9466 19.8845 63.3061 17.3208 63.1725 17.2311C62.969 17.5346 62.7985 17.8667 62.4594 18.1316C62.4429 17.4546 62.4759 17.2566 62.7847 16.9755C60.4764 15.4767 57.5214 14.5821 54.9239 13.737C54.8412 13.7983 54.5243 13.8624 54.7112 13.6649C51.4357 12.4902 48.18 10.9452 44.829 10.0111C44.3942 10.3975 43.9263 10.3717 44.0183 9.78976C42.7626 9.42716 41.5492 8.94125 40.3352 8.46387C40.5425 8.77333 40.4975 9.18867 40.1055 9.74995C39.4832 9.31571 39.4705 9.30252 40.1812 8.40514C39.0977 7.99953 37.9604 7.87236 36.8813 7.4212C36.7885 7.54931 36.103 8.4395 35.9886 8.06105C35.9733 7.74572 36.058 7.44944 36.2426 7.17179C35.8528 7.04023 32.4616 6.04431 32.5576 5.68597C32.8873 5.57997 33.2239 5.5829 33.5669 5.69516C33.6378 5.05491 34.6073 5.30366 34.1944 5.79876C39.1676 6.68602 44.2786 8.90064 48.9096 10.8676C48.8877 10.5661 49.2543 10.2446 49.4983 10.1958C44.099 8.38197 39.088 4.95983 33.4103 4C29.2233 5.27143 25.1637 9.21131 21.955 12.0407C19.6973 14.0311 17.2561 15.3785 14.8394 17.1042C12.6003 18.7032 11.4415 20.4205 10.4032 22.8991C8.32975 27.8503 7.90815 33.2723 6.58319 38.4623C5.88701 41.1897 5.78089 44.0936 5.34838 46.8783C4.96527 49.3463 3.34002 53.4424 4.29786 55.8647C4.3422 55.8314 4.38654 55.7976 4.43208 55.7687L4.30132 55.8731C5.00655 57.6355 8.87624 58.7531 10.5595 59.5031C10.4816 59.2363 11.2485 59.1043 11.2274 59.1209C11.2007 59.0217 11.1742 58.9224 11.1475 58.8232C11.1287 58.7788 11.11 58.7346 11.0913 58.6903C10.6331 58.4581 7.51399 57.2969 7.6622 56.8991C7.89004 56.2866 11.9185 58.1885 12.4477 58.3848C12.5057 58.3639 12.5638 58.3442 12.622 58.3248C12.6371 58.3467 12.6538 58.3676 12.6711 58.3868C12.6591 58.4081 12.6445 58.4277 12.6273 58.4458C17.2091 59.8619 21.5859 61.9795 26.1959 63.3636C27.407 63.7273 37.7626 66.5569 37.5892 67.0512C37.3384 67.7645 16.4576 60.6759 15.4546 60.3222C15.4598 60.6627 15.4252 60.762 15.1053 60.9358C21.5875 63.1653 28.0386 65.4193 34.5558 67.5408C34.608 67.3938 34.7095 67.3501 34.8601 67.4094C34.8934 67.4253 34.9269 67.4411 34.9603 67.4566C34.9083 67.5111 34.8565 67.5656 34.8043 67.62C35.6339 67.8845 36.6128 68.3275 37.4907 68.1069C38.2015 67.5609 38.9665 67.1634 39.8664 66.9686C39.8947 66.8782 39.9123 66.7899 39.9289 66.7017C40.0959 66.4807 41.6202 65.2146 41.8225 65.5463C41.6082 65.632 41.4563 65.7776 41.3668 65.9833C41.4509 66.0535 41.5464 66.0764 41.6532 66.0516C41.8085 66.4204 40.3629 66.3976 40.2891 66.878C42.835 66.3407 45.5731 64.7798 47.7632 63.4379C47.7142 63.418 47.6751 63.3863 47.6465 63.3431C47.6465 63.3013 47.6386 63.2647 47.623 63.2333C47.6373 63.1926 47.6575 63.1522 47.6833 63.1121C47.1768 62.9358 47.8595 62.4595 47.8184 62.937C47.9538 63.0237 48.0101 63.1448 47.9873 63.2998C49.628 62.2927 51.2506 61.2812 52.9648 60.4016C52.9962 60.2063 53.0181 60.0089 53.2144 59.7978C53.2338 59.8103 53.2538 59.8223 53.2744 59.8331C53.3672 59.7186 53.4596 59.6039 53.5519 59.4889C53.4595 59.6039 53.3672 59.7187 53.2743 59.8334C53.3146 59.9547 53.3739 60.0701 53.2949 60.2322C58.0419 57.804 61.1299 55.2716 62.514 50.0465C63.4902 46.3625 64.3975 42.6372 65.1068 38.8915C65.7002 35.7597 66.2045 32.6062 66.7291 29.4624C67.2445 26.3745 68.7049 22.2036 67.5918 19.1599C66.7017 19.7996 65.8605 19.0077 67.2377 18.517ZM61.5576 15.2436C61.5366 15.2859 61.1715 15.5853 61.2734 15.3785C61.315 15.2944 61.798 14.7553 61.5576 15.2436ZM64.8506 21.2822C64.9461 21.2409 65.0697 21.1545 65.1316 21.1676C65.4606 21.2384 65.048 22.0222 64.7787 21.8066C64.589 21.6553 64.8597 21.4608 64.8506 21.2822ZM63.7021 20.3981C64.5863 20.0707 63.7817 21.2786 63.6122 21.046C63.5427 20.8257 63.5725 20.6097 63.7021 20.3981ZM63.8494 23.8785L63.7319 23.8935L63.8367 23.7759L63.8494 23.8785ZM62.1175 38.9515C62.2004 38.9374 62.289 38.9129 62.3626 38.9166C62.2814 38.9125 62.4662 39.3467 62.1128 39.1895C62.1144 39.1101 62.116 39.0305 62.1175 38.9515ZM62.0838 34.3667C61.9784 34.5906 61.8554 35.1035 61.5823 34.8063C61.5695 34.7923 61.566 34.7689 61.5585 34.7497C61.6985 34.5201 61.8606 34.3541 62.0838 34.3667ZM61.6803 43.0336L61.3205 43.321C61.4321 43.2112 61.5538 43.114 61.6803 43.0336ZM59.6224 17.0149C59.5283 17.2081 59.3942 17.3489 59.1995 17.4084C59.1864 17.3104 59.173 17.2122 59.1595 17.1141C59.3117 16.9771 59.4659 16.9439 59.6224 17.0149ZM58.3121 24.062L58.3859 24.1188L58.2635 24.1907L58.3121 24.062ZM57.7878 15.7634C57.7946 15.7441 57.827 15.7207 57.8479 15.699C57.9842 15.7557 57.7741 15.8024 57.7878 15.7634ZM57.6147 19.3537C57.8049 19.3466 57.6955 19.4221 57.5911 19.4708C57.5987 19.4318 57.6069 19.3926 57.6147 19.3537ZM55.9438 14.6505C55.9441 14.8357 55.8812 14.9906 55.756 15.1147C55.654 15.0153 55.5522 14.9156 55.4502 14.8162C55.5767 14.676 55.7413 14.6206 55.9438 14.6505ZM55.5703 19.7387C56.094 19.4636 58.7146 19.8835 58.0791 20.5175C57.3279 21.2241 55.4185 19.535 55.1796 21.7435C55.3527 21.6939 55.2123 22.0034 55.1616 22.0625C55.172 24.0397 58.0396 27.2121 59.9139 25.3299C61.0419 24.1969 60.6049 22.2961 59.6727 21.2104C59.2746 21.2257 59.1021 21.0159 59.1559 20.5802C59.1132 20.465 59.1485 20.394 59.2615 20.3674C59.8729 19.4739 60.5902 19.7817 60.1087 20.802C63.2865 23.742 58.8016 28.9199 55.5327 24.6081C54.5441 23.3336 53.5822 20.7831 55.5703 19.7387ZM55.9742 20.8585C55.9683 20.8769 55.9363 20.8999 55.9162 20.9215C55.7708 20.8931 56.0041 20.7639 55.9742 20.8585ZM59.9465 35.1327C59.9465 35.1368 59.9471 35.1408 59.9472 35.1448L59.932 35.1485C59.9373 35.1435 59.9415 35.1376 59.9465 35.1327C59.9435 35.0038 60.265 33.6687 60.5956 34.1381C60.7054 34.2947 60.0119 35.0665 59.9465 35.1327ZM60.2768 40.8641C60.1572 40.897 60.0535 40.8798 59.9653 40.8126C60.2607 40.6112 60.2693 40.6127 60.2768 40.8641ZM59.7288 32.101C59.7204 32.077 59.7726 32.0095 59.7963 31.9629C60.1758 31.6741 59.8174 32.3543 59.7288 32.101ZM60.8519 41.2084C60.8647 41.2107 60.5408 41.8911 60.3291 41.7297C60.1311 41.5789 60.7652 41.1924 60.8519 41.2084ZM60.8896 42.4195C60.7985 42.518 60.7009 42.571 60.6133 42.5425C60.3974 42.3365 61.2231 42.0582 60.8896 42.4195ZM59.3477 48.2907C59.3458 48.2927 59.3441 48.2948 59.3421 48.2971C59.4097 48.473 59.3346 48.6694 59.1266 48.8852H59.127C59.0995 48.9621 59.0722 49.0391 59.045 49.1163C59.0169 49.089 58.9887 49.0621 58.9605 49.0352C59.0016 48.9902 59.041 48.944 59.0792 48.8967C58.9663 48.6925 59.225 48.4307 59.3421 48.2972C59.3421 48.2972 59.342 48.2934 59.3412 48.2917C59.3424 48.2899 59.3436 48.2879 59.3436 48.2879C59.284 48.1484 59.1409 47.6353 59.558 47.7906C59.594 47.989 59.5233 48.1541 59.3449 48.2859C59.3457 48.2875 59.347 48.289 59.3477 48.2907ZM57.9022 46.8972C57.5071 46.9327 57.2363 46.3312 57.4539 46.0749C57.4853 46.0658 57.5128 46.0457 57.5364 46.0146C57.485 45.7903 57.6612 45.469 57.9359 45.5143C58.1161 45.6155 58.1462 45.7636 58.0265 45.9588C58.1587 46.0385 58.3077 46.1006 58.419 46.2026C58.6666 46.4296 58.1439 47.0128 57.9022 46.8972ZM57.8637 47.9824C57.7511 47.8745 57.6387 47.7665 57.5262 47.6586C57.9788 47.4917 58.0159 47.5274 57.8637 47.9824ZM58.2913 31.8371C58.3683 32.0899 58.2769 32.3015 58.0173 32.4718C57.2558 33.3002 57.3706 31.0545 58.2913 31.8371ZM57.9346 35.611C57.9037 35.7932 57.8149 35.8667 57.668 35.8311C57.7061 35.6671 57.7952 35.5938 57.9346 35.611ZM57.6496 30.2894C57.5557 30.2304 57.2131 29.9814 57.5832 29.9095C57.7954 29.8682 57.8918 29.9913 58.0095 30.0833C57.8894 30.1521 57.7695 30.221 57.6496 30.2894ZM58.2779 36.3021C58.3796 36.2164 58.4815 36.1306 58.5832 36.0447C58.8562 36.2196 58.4869 36.4205 58.2779 36.3021ZM57.0304 45.5902C57.0083 45.6513 56.9821 45.6664 56.957 45.6341C56.9698 45.6156 56.9822 45.5964 56.9951 45.5777C57.0074 45.5817 57.0327 45.5837 57.0304 45.5902ZM56.1547 27.8747C56.495 27.8494 55.8662 28.5345 55.6884 28.3988C55.4526 28.2196 56.243 27.868 56.1547 27.8747ZM56.2487 29.0887C56.1577 29.1873 56.0603 29.2404 55.9726 29.2118C55.7567 29.0058 56.5823 28.7273 56.2487 29.0887ZM55.6359 27.5336C55.5165 27.5663 55.4127 27.5491 55.3246 27.4818C55.6199 27.2805 55.6286 27.282 55.6359 27.5336ZM54.0498 33.2198C54.5264 33.172 54.9011 33.3793 55.1737 33.8418C55.3815 34.0461 55.5131 34.2882 55.5683 34.5686C55.386 34.921 53.8472 33.6019 54.0498 33.2198ZM55.4311 53.5148L55.4201 53.575L55.3739 53.5639L55.4311 53.5148ZM54.8124 44.3112C54.9448 44.1346 55.0971 44.1211 55.2695 44.2703C55.2727 44.2663 55.276 44.2628 55.2792 44.2588L55.3174 44.2623L55.2745 44.2768C55.2728 44.2745 55.2711 44.2728 55.2695 44.2703C55.2033 44.3496 55.1356 44.4138 55.0684 44.4518C54.988 44.4968 54.7505 44.506 54.8124 44.3112ZM54.4245 43.9713C54.4986 43.897 54.5722 43.8229 54.6465 43.7488C54.7463 43.7258 54.8469 43.7166 54.8033 43.8478C54.7001 43.9669 54.5738 44.0082 54.4245 43.9713ZM54.2243 49.4704C54.2866 49.6068 53.7657 49.8668 53.7491 49.7507C53.8096 49.6311 54.1305 49.2699 54.2243 49.4704ZM54.0534 48.2145C54.0613 48.1438 54.1047 48.1181 54.1837 48.138C54.1749 48.2084 54.1315 48.2343 54.0534 48.2145ZM53.6669 23.4638C53.7421 23.4 53.8313 23.3634 53.9346 23.3539L53.9345 23.3542L53.9349 23.3541C53.8372 23.6623 53.9124 23.604 53.5734 23.7426C53.6021 23.6476 53.6049 23.5328 53.6669 23.4638ZM53.3919 44.1924C53.4425 44.2603 54.14 44.9047 54.1581 44.9169C54.4119 45.0871 53.463 45.4256 53.4497 45.1816C53.5121 45.0392 53.5599 44.892 53.594 44.7405C53.5273 44.7955 52.854 44.7495 52.8877 44.7332C53.0559 44.5529 53.2241 44.3727 53.3919 44.1924ZM53.1253 47.2343C53.1526 47.0785 53.4462 46.7347 53.6233 47.112C53.7637 47.4124 53.1758 47.2927 53.1253 47.2343ZM53.4593 51.2772C53.4337 51.3488 53.2772 51.4331 53.383 51.3028C53.4113 51.2933 53.4351 51.2853 53.4593 51.2772ZM52.5214 46.9318H52.5219L52.5214 46.9319C52.5219 46.9446 52.5234 46.9523 52.5245 46.9615C52.5661 47.1013 52.9813 45.6958 53.2522 46.1903C53.343 46.3563 52.645 46.8867 52.604 46.9098C52.587 46.9518 52.5378 47.0727 52.5245 46.9615C52.5225 46.9548 52.521 46.9459 52.5209 46.9319L52.5214 46.9318ZM52.0328 13.8324L51.9586 13.9492L51.9191 13.8872L52.0328 13.8324ZM52.5038 14.5883C53.4198 14.466 51.969 16.7728 51.7939 16.2828C51.6456 15.874 51.9355 14.6639 52.5038 14.5883ZM52.2764 22.6984C52.2728 23.0688 52.1222 23.1794 51.8255 23.0302C51.8208 22.7387 51.9709 22.6283 52.2764 22.6984ZM50.4025 13.5464C50.5327 13.5017 50.6634 13.4567 50.7937 13.4119C51.1049 13.7275 49.892 14.1764 50.4025 13.5464ZM50.8477 26.7668C50.8474 26.8122 50.8296 26.8529 50.7941 26.889C50.6604 26.9011 50.6853 26.8674 50.7411 26.7456C50.7786 26.7512 50.8314 26.7425 50.8477 26.7668ZM50.2632 28.3438C50.0273 28.213 49.791 28.0821 49.5549 27.9514C49.515 27.7816 49.475 27.6123 49.4362 27.4431C49.6657 27.5194 49.8563 27.6491 50.0078 27.8317C49.95 27.7649 50.3362 28.3762 50.2632 28.3438ZM50.5347 31.8819C50.3612 32.2307 49.0071 30.8086 49.0066 30.4058C49.3335 30.5363 50.8571 31.2305 50.5347 31.8819ZM50.2536 25.2057L50.5687 25.5759L50.2101 25.3748L50.2536 25.2057ZM47.352 11.3225L47.4018 11.4069L47.2713 11.4506L47.352 11.3225ZM47.459 20.2088C47.6258 20.4402 47.5146 21.2801 47.0057 21.1055C46.7199 20.8244 47.3502 20.0575 47.459 20.2088ZM46.4871 16.6914L46.401 16.8211L46.3585 16.7496L46.4871 16.6914ZM46.5701 25.9168C46.1176 25.4724 47.2873 24.7629 47.4696 25.5759C47.9554 25.4029 51.1063 26.3906 50.3206 27.1102C50.095 27.3211 48.9849 26.6243 48.6437 26.5163C45.6466 25.5035 44.6186 29.518 46.6119 31.2892C47.6346 32.1979 49.1582 32.6058 50.4441 32.0036C51.1822 31.6581 51.7554 30.9976 51.8748 30.1946C51.9052 29.9896 51.5557 28.5121 51.6221 28.4515C51.9997 28.1142 52.4311 29.4405 52.4765 29.681C52.6274 30.4789 52.3067 31.1586 51.7745 31.7378C50.6686 32.9414 48.7647 32.962 47.3446 32.3609C44.9305 31.3389 43.4347 27.0184 46.5701 25.9168ZM48.2558 27.6965C48.0704 28.0704 47.6168 27.7981 47.711 27.4539C47.983 27.1043 48.4461 27.3135 48.2558 27.6965ZM51.564 51.1767C51.446 51.2122 51.3279 51.2476 51.2099 51.283C50.9944 51.0654 51.4518 50.9963 51.5363 51.0245C51.9621 50.6262 52.2364 50.194 52.3041 49.7034C52.9068 50.1449 51.9499 51.0433 51.564 51.1767ZM51.9778 51.6668L51.975 51.7105L51.9376 51.703L51.9778 51.6668ZM52.2505 43.5822C51.7606 44.2126 52.2087 43.5155 51.4809 43.7462C51.3444 43.7894 51.2337 43.7841 51.1557 43.7187C50.4085 44.0812 50.8057 42.9261 51.1338 43.2929C51.2015 43.2579 53.0365 42.5702 52.2505 43.5822ZM52.4226 45.0982C52.3961 45.1358 52.3696 45.1734 52.3434 45.2112C52.3692 45.1735 52.395 45.136 52.4206 45.0982H52.4226ZM51.8797 46.8669C51.6711 46.9363 51.6224 46.8735 51.7339 46.6791C51.981 46.4968 52.0709 46.7683 51.8797 46.8669ZM50.6157 39.9667C50.2942 40.2243 50.1357 40.1682 50.0082 40.0513C49.9657 40.0123 49.9269 39.9665 49.8866 39.9233C50.1419 39.797 50.3849 39.8116 50.6157 39.9667ZM49.9458 35.6134C50.0131 35.369 50.1626 35.275 50.3937 35.332C50.411 35.4287 50.3844 35.5199 50.3142 35.6058C50.1281 35.7659 50.0052 35.7684 49.9458 35.6134ZM49.4898 40.4688C49.5106 40.3786 49.5315 40.2885 49.552 40.1982C49.5917 40.309 49.571 40.3993 49.4898 40.4688ZM49.2846 40.2122C49.2174 40.226 49.15 40.2393 49.0829 40.2528C49.1287 40.205 49.1748 40.157 49.2204 40.1092C49.2419 40.1436 49.2633 40.1779 49.2846 40.2122ZM48.3522 45.0691C48.2513 44.8438 48.4187 44.618 48.6735 44.3917C48.69 44.6172 48.709 44.8426 48.3522 45.0691ZM47.7142 49.9481C47.3932 52.1985 47.0661 48.5833 47.8632 49.6685C47.9217 49.7483 47.8061 49.8571 47.7142 49.9481ZM46.6867 41.9104C46.5804 42.0237 46.468 42.0474 46.3489 41.9808C46.3333 41.7897 46.4677 41.5994 46.6801 41.7772C46.9218 41.6598 46.8074 42.0459 46.6867 41.9104ZM46.7789 47.3409C46.6901 47.4931 46.583 47.6189 46.4208 47.6678C46.4215 47.5294 46.438 47.3899 46.5951 47.2377C46.6564 47.272 46.7176 47.3065 46.7789 47.3409ZM45.2116 17.9786C45.1943 18.0995 45.1771 18.2204 45.1598 18.3413C45.0045 18.6132 44.7841 18.7375 44.4988 18.7142C44.3142 18.5115 45.0092 17.8856 45.2116 17.9786ZM43.9319 17.7796C43.9194 17.8802 43.8638 17.9242 43.7661 17.9115C43.7211 17.7932 43.7762 17.7493 43.9319 17.7796ZM44.6255 38.2398C45.1286 38.61 43.9626 39.5425 43.7297 39.0671C43.5556 38.7125 44.2726 37.9806 44.6255 38.2398ZM43.6806 44.7055C44.2869 44.6031 43.758 44.9802 43.6756 44.9436C43.677 44.8642 43.6787 44.7847 43.6806 44.7055ZM43.243 48.7877L42.8832 49.075C42.9947 48.9653 43.1165 48.8678 43.243 48.7877ZM42.8088 18.7226C42.8164 18.8419 42.8241 18.9612 42.8317 19.0805C42.6531 19.3083 42.4503 19.3818 42.2864 19.3023C42.2587 18.933 42.433 18.7395 42.8088 18.7226ZM42.4523 48.1733C42.3611 48.2721 42.2636 48.3251 42.1761 48.2963C41.9599 48.0902 42.7858 47.8127 42.4523 48.1733ZM41.892 47.4835C41.6936 47.3331 42.3278 46.9464 42.4145 46.9624C42.4269 46.9647 42.1037 47.6453 41.892 47.4835ZM42.2748 41.4551C42.2893 41.5241 42.2064 41.6559 42.1682 41.7594C40.3987 43.7427 41.8936 39.6349 42.2748 41.4551ZM41.8394 46.6182C41.7199 46.6511 41.6161 46.6339 41.528 46.5664C41.8234 46.3653 41.8321 46.3665 41.8394 46.6182ZM42.0619 17.8221C41.9205 18.2312 41.6295 18.4079 41.1889 18.3526C40.869 18.0255 42.027 17.43 42.0619 17.8221ZM41.5355 11.8694L41.5356 11.8691L41.5358 11.8688C41.6214 11.8275 41.7073 11.7865 41.7933 11.7454C41.6773 12.0976 41.3499 12.1393 41.5355 11.8694ZM40.6762 13.7599C40.9761 13.267 42.2255 12.7693 41.6213 13.6295C41.6479 13.5915 40.4394 14.8782 40.31 14.3048C40.3356 14.0621 40.4578 13.8805 40.6762 13.7599ZM40.3513 15.4277C40.3561 15.0856 40.7428 15.2274 40.87 15.2856C41.4314 16.2484 40.343 15.9791 40.3513 15.4277ZM40.2714 23.0911C40.1708 22.7479 40.3075 22.5808 40.6809 22.5896C40.7404 22.8736 40.6039 23.0407 40.2714 23.0911ZM40.6078 19.0236C40.7279 19.3342 40.3312 19.3103 40.2231 19.3187C40.1986 19.4699 40.333 18.3019 40.6078 19.0236ZM40.5232 27.7459C40.6493 28.0682 40.5384 28.3511 40.1898 28.5951C40.1136 28.6746 40.0206 28.7297 39.9105 28.7609L39.9103 28.7607C39.806 28.594 40.2005 27.6705 40.5232 27.7459ZM39.5896 34.4018C40.0454 34.2425 39.7838 34.4783 39.5817 34.6231C39.5837 34.5494 39.5868 34.4757 39.5896 34.4018ZM36.9486 16.1863C36.6097 16.9797 35.9619 15.9669 35.9371 15.9601C35.9143 15.9538 37.3775 15.1874 36.9486 16.1863ZM37.1244 17.3776C37.0928 17.6647 36.9269 17.7896 36.6261 17.7522C36.6401 17.3623 36.8061 17.2374 37.1244 17.3776ZM35.7828 28.426C35.7391 28.5699 35.6357 28.6301 35.4725 28.6068C35.5056 28.4261 35.609 28.3659 35.7828 28.426ZM37.8544 34.14C37.1624 34.9585 34.6763 32.3618 33.3866 34.6762C32.6347 36.0259 33.0306 37.9179 34.0104 39.1679L34.1265 39.1293L34.0614 39.2326C34.4094 39.6598 34.8268 40.0072 35.2905 40.2236C35.4273 40.1767 35.9563 40.0845 35.8078 40.4259C36.7789 40.7384 38.1929 40.4974 38.9499 39.8204C38.5135 40.1099 38.0933 40.1561 37.6892 39.9588C37.867 39.3455 39.0803 38.5843 39.7779 38.7921C40.0879 38.2383 40.0497 34.748 39.955 34.7688C41.5047 34.456 40.532 38.8574 39.9394 39.531C38.8591 40.8071 37.0216 41.3627 35.417 40.8035C35.1253 41.1588 34.8177 41.2728 34.4935 41.1455C34.5341 40.7998 34.48 40.8656 34.8065 40.5373C32.7401 39.4674 31.5438 36.2049 32.7965 34.1041C34.3538 31.4915 37.993 33.98 37.8544 34.14ZM37.2386 35.0925C37.2328 34.9941 37.131 34.4018 37.6047 34.7023C37.9476 34.921 37.2325 35.0907 37.2386 35.0925ZM35.2126 36.6731C35.0157 35.8591 36.3756 35.0472 36.556 35.9912C36.6974 36.7278 35.4328 37.5834 35.2126 36.6731ZM39.2021 44.682C39.1712 44.8643 39.0824 44.9377 38.9356 44.9019C38.9736 44.7382 39.0625 44.6648 39.2021 44.682ZM35.5459 47.1562L35.5234 47.2775L35.4304 47.2555L35.5459 47.1562ZM32.8931 30.4652C32.7774 30.4681 33.5664 29.4708 33.7676 30.1597C33.8147 30.3203 33.0242 31.3618 32.938 31.2226C32.9589 30.9315 33.1109 30.7162 33.3944 30.5765C33.2814 30.4526 33.0876 30.4604 32.8931 30.4652ZM34.7855 29.6776C34.6501 29.7828 34.6149 29.7485 34.68 29.5742C34.8168 29.4596 34.852 29.4941 34.7855 29.6776ZM34.7175 23.0184C35.0388 23.864 32.3577 25.2755 31.8835 25.5039C31.3293 25.7712 34.4535 22.3251 34.7175 23.0184ZM31.867 40.4821C32.0557 40.8075 31.6847 41.1584 31.3948 40.9644C31.2552 40.848 31.7357 40.2544 31.867 40.4821ZM31.2715 15.9862C31.861 15.5185 31.8509 15.3832 32.6203 15.2639C32.1836 15.7566 31.7352 16.0231 31.2715 15.9862ZM31.8276 32.0976C31.8687 31.9661 31.9529 31.8665 32.0799 31.7984C32.2622 31.755 32.2892 31.804 32.161 31.9453C32.0659 32.0367 31.9547 32.0873 31.8276 32.0976ZM33.0632 22.9696C33.091 23.1953 33.0487 23.2767 32.8172 23.3698C32.8998 23.2368 32.982 23.1033 33.0632 22.9696ZM32.7605 7.02238C32.6741 7.35329 31.9381 7.9998 31.7241 8.47638C31.1648 9.72212 30.8861 11.2311 30.5284 12.5531C30.7086 12.9056 30.6426 13.3054 30.2717 13.5098C29.5055 16.264 29.1479 19.0396 28.552 21.8298C28.5895 21.827 28.6313 21.8247 28.6807 21.8223C28.6313 21.8247 28.5895 21.827 28.5519 21.83C27.6537 26.0414 27.2645 30.3637 26.5598 34.6118C26.119 37.2678 24.9907 41.9859 27.1866 43.9362C29.5197 46.0083 33.3507 46.9837 36.1781 48.0604C39.9111 49.4816 43.7937 50.6928 47.6113 51.8551C47.567 51.9213 48.641 51.3166 48.542 51.3091C48.8026 51.5314 48.7968 51.8026 48.5251 52.1226C49.0144 52.2619 54.3 53.938 54.1743 54.1318C54.3857 54.0894 54.4706 54.3808 54.6198 54.486C54.6218 54.8977 54.6151 55.6119 53.9802 55.4919C53.8924 55.0305 53.5446 54.483 54.0769 54.1702C52.3605 54.3569 49.9033 53.1798 48.2511 52.7077C47.7796 53.0625 47.597 52.7509 47.3317 52.4335C43.5701 51.2593 39.7522 49.9768 36.0782 48.5425C33.0235 47.3499 28.8976 46.3388 26.4922 44.0139C24.917 42.4912 25.3383 39.3322 25.5077 37.2845C25.8243 33.4634 26.5678 29.5441 27.1172 25.7493C27.3596 24.0935 27.6041 22.4446 27.9399 20.8046C27.9079 20.8103 27.8765 20.8093 27.8477 20.7932C27.8396 20.6879 27.8857 20.616 27.9861 20.5774C28.5145 17.9738 28.8276 15.4552 29.5763 12.889C29.4019 12.9453 28.9908 13.5697 28.8193 13.4689C28.6993 13.3974 29.6529 12.2678 29.7726 12.2188C30.2088 10.7702 30.6458 9.05178 31.4369 7.74679C31.437 7.73201 31.4374 7.71736 31.4377 7.70231C31.4477 7.70085 31.4576 7.69858 31.4679 7.69685C31.6309 7.43772 32.8617 6.68695 32.7605 7.02238ZM30.6997 37.1067C30.9356 37.049 31.0057 37.1305 30.9102 37.3506C30.7412 37.4722 30.6242 37.4612 30.5834 37.347C30.5692 37.3059 30.658 37.1888 30.6997 37.1067ZM30.4547 30.2691C30.1286 29.9698 30.7532 29.7962 30.7764 29.8359C30.8667 29.993 30.6529 30.3343 30.4547 30.2691ZM29.6039 21.2215L29.5798 21.2858L29.5429 21.2574L29.6039 21.2215ZM28.6715 21.8332L28.6901 21.8216C28.6861 21.8295 28.6844 21.8336 28.6813 21.8398C28.6896 21.8457 28.6973 21.8511 28.7057 21.8568C28.666 21.8934 28.659 21.8865 28.6813 21.8398C28.6783 21.8376 28.6751 21.8355 28.6715 21.8332ZM27.8712 43.743C27.7732 44.0518 27.8493 43.9929 27.5096 44.1319C27.6176 43.7746 27.5634 43.8587 27.8709 43.7428V43.7432L27.8712 43.743ZM27.1042 43.0124C27.0211 43.0332 26.9413 43.0431 26.8602 43.0548C27.0241 42.8075 27.2272 42.9825 27.1042 43.0124ZM52.368 57.0978C52.3603 57.118 52.3487 57.1414 52.3386 57.1635C52.3307 57.1858 52.325 57.209 52.321 57.2331C52.315 57.219 52.3254 57.1922 52.3386 57.1635C52.3464 57.1408 52.3561 57.1188 52.368 57.0978ZM51.9361 58.3056C51.6782 58.212 51.6271 58.0351 51.7829 57.7749C51.8833 57.6664 51.987 57.6683 52.0942 57.7815C52.2086 57.9784 52.2846 58.2499 51.9361 58.3056ZM51.0924 57.3974C51.0077 57.5685 50.923 57.74 50.8382 57.9114C50.8236 57.9279 50.7909 57.9319 50.767 57.9419C50.4405 57.7185 51.0814 57.2728 51.0924 57.3974ZM49.8918 54.8399C49.8201 54.2961 49.1198 54.7748 49.5913 54.0381C50.6827 54.3204 49.852 54.5399 49.8918 54.8399ZM50.0137 58.6195C49.9651 58.6978 49.9308 58.7095 49.9166 58.6555C49.9464 58.5836 49.9788 58.5719 50.0137 58.6195ZM49.2405 59.3517C49.1886 59.5895 49.0584 59.6862 48.85 59.6408C48.9103 59.4238 49.0407 59.3275 49.2405 59.3517ZM47.8995 56.9829C47.7997 57.0911 47.7058 57.1421 47.6176 57.1053C47.5907 57.079 47.5598 57.0573 47.5251 57.04C47.4873 56.9734 47.4496 56.9074 47.4118 56.8413C47.4407 56.804 48.2804 55.9579 48.4693 56.0642C48.6932 56.1908 47.8891 56.9943 47.8995 56.9829ZM45.6288 58.5111C45.7215 58.4124 45.8143 58.3138 45.9071 58.2149C45.9795 58.1945 46.0521 58.174 46.1247 58.1538C46.353 57.9186 46.5815 57.6832 46.8099 57.448C46.8102 57.56 46.7328 57.755 46.9824 57.5993C47.1053 57.7737 46.9513 58.0241 46.8192 58.2684C47.2198 58.8783 45.773 58.6131 45.6288 58.5111ZM43.1512 57.4992C43.0356 57.586 42.804 57.5396 42.7999 57.3786C41.5603 56.8314 38.6657 55.8143 39.5536 53.9433C40.0421 52.9141 41.7892 52.7662 42.7545 53.0149C42.6405 52.8124 42.6975 52.1793 42.3249 52.4281C42.2626 52.3201 42.182 52.25 41.9829 52.4221C41.5762 52.462 41.5762 52.462 41.8711 52.0351C41.3545 50.7116 42.8707 52.0085 43.3331 52.0809C43.451 52.2836 43.5689 52.4865 43.6865 52.6891C43.5684 52.8141 43.45 52.9393 43.3317 53.0646C43.6774 53.0453 46.0003 54.0668 45.589 54.6663C45.8923 54.2234 36.5278 52.686 40.9437 55.9434C41.5657 56.4114 42.215 56.6074 42.9277 56.903C43.0674 56.816 43.3822 56.7451 43.3337 57.0172C43.8582 57.111 44.69 57.4081 45.1908 57.2994C45.8438 57.1579 46.1605 56.3193 46.5612 56.2225C46.8113 56.1589 46.2666 57.795 45.2079 57.9235C44.5851 57.9989 43.7613 57.6563 43.1512 57.4992ZM43.5297 58.5693C43.4437 58.559 43.4504 58.5786 43.499 58.4767C43.5223 58.4803 43.5544 58.4755 43.567 58.4898C43.5889 58.5133 43.546 58.5571 43.5297 58.5693ZM43.2063 59.0488C43.2036 59.0469 43.2015 59.046 43.199 59.0442C43.208 59.0747 43.4935 59.5092 43.2131 59.3665C42.916 59.2163 42.8575 58.8113 43.199 59.0442C43.1979 59.0408 43.1994 59.0409 43.2063 59.0488ZM42.3969 60.0193C42.5565 59.9463 42.5616 59.9515 42.4963 60.1145C42.5051 60.1363 42.5152 60.1575 42.5266 60.1774C42.4881 60.3318 42.4253 60.4769 42.3375 60.6125C42.3493 60.6919 42.2793 60.7461 42.2106 60.8005C42.1616 60.7474 42.1104 60.6957 42.133 60.5893C42.0556 60.4191 42.0426 60.172 42.17 60.0282C42.1599 60.0118 42.1556 59.991 42.1576 59.9668C41.9776 60.0575 41.7908 60.1298 41.5969 60.1837C41.6038 60.143 41.6106 60.1023 41.6171 60.0617C41.5387 59.9914 41.59 59.9214 41.6753 59.9969C41.8158 59.9122 41.9566 59.8275 42.097 59.7428C42.2036 59.4926 42.3596 59.4102 42.5655 59.4957C42.5342 59.67 42.4462 59.8105 42.3018 59.9171C42.3335 59.9509 42.3652 59.9849 42.3969 60.0193ZM40.9721 59.3035C40.9347 59.3645 40.885 59.423 40.8404 59.4825C40.8257 59.4313 40.8108 59.3799 40.7962 59.3288C40.8267 59.297 41.0915 59.109 40.9721 59.3035ZM37.02 52.1821C36.8121 52.331 35.883 52.6058 35.6953 52.5932C35.2072 52.5606 34.7016 52.8614 34.2347 52.9684C34.1979 52.8876 34.1229 52.825 34.2417 52.6703C34.2339 52.6646 34.2272 52.6588 34.2198 52.6526L34.2322 52.6626L34.233 52.6624C34.6008 52.6102 35.1498 52.0499 35.3838 51.9258C35.7207 51.7469 36.1813 52.1894 36.5777 51.4176C36.7291 51.3576 36.8799 51.2978 37.0311 51.238C37.0664 51.253 37.1025 51.2665 37.1397 51.2785C36.8251 51.6533 36.7454 51.7833 37.02 52.1821ZM34.514 56.1649C33.7881 56.7352 34.2126 55.4993 34.2732 55.6262C34.2837 55.6479 35.1653 55.6529 34.514 56.1649ZM31.9456 50.4724C31.8258 50.5414 31.7055 50.61 31.586 50.6784C31.4923 50.6199 31.1487 50.3701 31.5194 50.2988C31.7313 50.2575 31.828 50.3806 31.9456 50.4724ZM24.5191 36.1724C24.4038 36.1755 25.1929 35.1778 25.3938 35.8672C25.441 36.0279 24.6501 37.0691 24.5642 36.9301C24.5849 36.6389 24.7371 36.4237 25.0206 36.284C24.9074 36.1598 24.7136 36.1676 24.5191 36.1724ZM17.5751 45.7955C17.3916 46.2661 17.0354 47.2672 16.974 46.8436C16.9874 46.4909 17.0689 46.1549 17.2186 45.8355C17.4135 45.6798 17.5313 45.6688 17.5751 45.7955C17.6943 45.4901 17.7409 45.4075 17.5863 46.0853C17.6017 45.9527 17.5968 45.8584 17.5751 45.7955ZM17.2834 36.3267C17.3578 36.1576 18.1266 35.2862 18.1731 35.6813C18.1806 35.7454 18.0752 35.8748 18.0101 35.995C17.8028 36.1943 17.5604 36.305 17.2834 36.3267ZM15.4811 32.8368C15.4952 32.6773 16.4645 28.5101 17.4648 29.2032C17.8992 29.5035 14.2599 35.6932 17.4953 33.9594C18.579 33.3789 19.012 31.5057 19.201 30.4033C19.2961 29.8483 19.5477 28.9456 19.2652 28.4379C18.7806 27.5663 18.083 28.2465 17.6313 27.7568C17.2412 27.3508 18.9393 27.2632 19.2561 27.46C19.7075 27.7407 19.8107 28.0421 19.9408 28.5025C20.2137 29.469 19.5822 31.1611 19.2621 32.0509C18.5167 34.1222 15.1165 36.736 15.4811 32.8368ZM16.6112 42.9283C16.5152 43.2226 16.3331 43.3788 16.0646 43.3973C15.8281 43.2176 16.6497 42.7717 16.6112 42.9283ZM21.2019 31.8633C22.1071 32.652 19.6517 34.339 19.7025 34.4213C19.4014 33.9391 20.4477 33.2502 20.6964 33.0143C20.4502 32.7436 20.0278 32.7609 19.6042 32.771C19.5352 32.7726 20.4168 31.179 21.2019 31.8633ZM20.3041 19.9699C20.4262 19.7562 20.5855 19.4218 20.804 19.7452C20.5405 20.0421 20.5405 20.0421 20.3041 19.9699ZM20.8208 16.0088C20.8265 15.9883 20.8328 15.9669 20.839 15.9449C20.8995 15.9307 20.9137 15.9522 20.8816 16.0096C20.8627 16.0095 20.8437 16.0091 20.8208 16.0088ZM21.8381 34.7429C22.4853 35.2425 17.857 40.4337 20.4114 41.2462C23.4188 42.2025 22.2212 34.5703 22.7479 34.4615C23.7744 34.2484 23.0403 38.5274 22.931 38.9426C22.637 40.0588 20.5602 43.4761 19.4143 41.2022C18.8388 40.0719 20.5684 33.763 21.8381 34.7429ZM21.7335 17.0791C21.6955 17.092 21.658 17.1048 21.6203 17.1176C21.6465 17.0024 21.7152 16.8731 21.7336 17.0788L21.7331 17.0789L21.7335 17.0791ZM21.8484 39.1708C21.7572 39.2696 21.6598 39.3228 21.5719 39.2943C21.3563 39.0879 22.1818 38.8097 21.8484 39.1708ZM21.288 38.4809C21.0898 38.3304 21.7239 37.9439 21.8107 37.96C21.8229 37.9621 21.4998 38.6428 21.288 38.4809ZM21.8111 27.6309C21.8244 27.2784 21.906 26.9421 22.0557 26.6227C22.9365 25.8932 21.8724 28.0538 21.8111 27.6309ZM21.2356 37.6158C21.1163 37.6488 21.0123 37.6315 20.9242 37.564C21.2193 37.3628 21.228 37.3644 21.2356 37.6158ZM22.6142 18.9095C22.5969 18.6907 22.7498 18.6654 22.6233 18.9071L22.6142 18.9095ZM22.7395 15.0811C22.7743 14.7907 22.7219 14.3608 23.0845 14.3572C23.3053 14.7446 22.7568 14.9329 22.7395 15.0811ZM23.4421 15.8026L23.4736 15.7885C23.4744 15.7871 23.4751 15.7857 23.4759 15.7843C23.4924 15.7562 23.5072 15.7285 23.5206 15.701C23.53 15.6818 23.5382 15.6621 23.5465 15.6425C23.5509 15.6321 23.5559 15.6216 23.5601 15.6112C23.5678 15.5916 23.5742 15.5717 23.5807 15.5517C23.5843 15.5408 23.5884 15.5304 23.5917 15.5192C23.6007 15.4892 23.6084 15.459 23.6146 15.4283C23.6087 15.4576 23.6008 15.4884 23.5917 15.5192C23.5885 15.5301 23.5843 15.5408 23.5807 15.5517C23.5748 15.5698 23.5692 15.5884 23.5626 15.6052C23.5619 15.6072 23.5607 15.6092 23.5599 15.6112C23.5558 15.6217 23.5509 15.632 23.5463 15.6425C23.5382 15.662 23.5301 15.6814 23.5205 15.701C23.5067 15.7293 23.4917 15.757 23.4758 15.7843C23.475 15.7858 23.4743 15.7871 23.4735 15.7885C23.4734 15.7886 23.4734 15.7886 23.4734 15.7887L23.4421 15.8026C23.2815 16.0219 23.1339 16.0336 22.9893 16.0031C23.1446 15.8657 23.2961 15.7915 23.4421 15.8026ZM22.686 18.1591C22.8538 18.0352 22.9239 18.1056 22.997 18.1702C22.8221 18.3088 22.7484 18.2452 22.686 18.1591ZM23.6091 40.1657C23.4892 40.2343 23.3691 40.303 23.2493 40.3716C23.1696 40.3216 23.0836 40.2782 23.0145 40.2168C22.825 40.0489 23.458 40.0474 23.6091 40.1657ZM23.4967 30.8298C23.7947 30.5809 23.8714 30.6559 23.7264 31.0551C23.5142 31.1585 23.1736 31.1736 23.4967 30.8298ZM23.3611 22.1653C23.2628 22.2351 24.4432 21.2203 24.481 21.8423C24.2793 22.2601 23.8326 22.4387 23.3611 22.1653ZM23.5373 21.6781C23.5678 21.6714 23.6032 21.6728 23.6314 21.6628C23.6032 21.6726 23.5676 21.6714 23.5373 21.6781ZM23.2041 18.8453C23.0787 18.2934 23.0004 17.867 23.1122 17.2997C22.9721 17.3499 22.8486 17.3224 22.7414 17.2177C22.7326 16.8305 22.8602 16.6852 23.2662 16.9056C23.3329 16.7741 24.6379 13.7605 25.4202 14.5855C25.5178 14.6885 23.8661 17.3851 23.8229 17.7269C23.7394 18.3869 24.197 21.3146 25.2263 20.5441C25.227 20.4896 25.2276 20.4353 25.2282 20.3807C25.2593 20.3329 25.292 20.2855 25.3263 20.2385C25.4109 20.2076 25.4957 20.177 25.5805 20.1463C26.0341 19.5342 26.4241 18.7401 26.6501 18.0293C26.7598 17.6848 26.7255 15.0336 26.7968 14.9927C27.5304 14.5607 27.4882 17.007 27.4754 17.1096C27.3605 18.0252 26.8834 18.707 26.4554 19.4813C25.3494 21.4834 23.6125 21.5961 23.2041 18.8453ZM25.4681 17.7914C25.4643 17.8454 25.4424 17.8936 25.4018 17.9358C24.946 18.2098 25.3641 17.4463 25.4681 17.7914ZM24.6878 19.1491C24.6005 19.0223 24.9192 18.6389 25.0107 18.708C25.1196 18.7899 24.7195 19.1953 24.6878 19.1491ZM25.8506 11.6206C25.8654 11.5961 25.8803 11.5719 25.8952 11.5475C25.9976 11.5683 25.9105 11.6318 25.8506 11.6206ZM26.0144 14.435C26.0178 14.4028 26.0435 14.3623 26.0686 14.3219C26.0482 14.3582 26.0301 14.3961 26.0144 14.435ZM26.3182 20.3005C26.213 20.3621 26.2603 20.2814 26.312 20.2507C26.3138 20.2672 26.3161 20.2838 26.3182 20.3005ZM26.2025 22.0749C26.1911 22.1395 26.1586 22.1593 26.1048 22.1342C26.1196 22.1095 26.1343 22.0854 26.1494 22.0611C26.1686 22.0651 26.2003 22.0608 26.2025 22.0749ZM26.0899 21.062C26.0867 21.1413 26.0382 21.1863 25.9449 21.1966C25.9551 21.1553 25.9648 21.1148 25.975 21.0745C26.0138 21.0691 26.0544 21.0608 26.0899 21.062ZM25.223 28.7227C25.187 28.5784 25.289 28.4372 25.445 28.3301C25.6201 28.1453 25.7712 28.145 25.8986 28.3289C25.9373 28.5338 25.4098 28.9497 25.223 28.7227ZM28.0165 11.4126C28.1167 11.3253 28.2034 11.3197 28.4267 11.3087C28.2036 11.3197 28.1169 11.3253 28.0165 11.4126ZM28.775 14.1539C29.2597 13.4852 29.0644 15.5608 28.4262 15.1382C28.3285 14.9654 28.715 14.2367 28.775 14.1539ZM26.0578 9.73703C26.0599 9.75381 26.0618 9.77046 26.064 9.78684C25.9588 9.84915 26.0068 9.76766 26.0578 9.73703ZM24.9741 9.86726C25.005 9.81933 25.0376 9.77192 25.0721 9.72491C25.2266 9.66898 25.3813 9.61253 25.5359 9.5566C25.6551 9.39321 25.774 9.22915 25.8927 9.06549C25.774 9.22915 25.6551 9.39321 25.5363 9.55713C25.5065 9.91081 25.3276 10.0864 24.9712 10.1295C24.9726 10.0422 24.9732 9.95475 24.9741 9.86726ZM24.6075 10.3301L24.6074 10.3304C24.4911 10.3272 24.3745 10.3241 24.2582 10.3209C24.3743 10.3241 24.4911 10.3272 24.6075 10.3301ZM23.2832 11.1641C23.2964 11.1615 23.3104 11.1603 23.3244 11.1588C23.3104 11.1603 23.2963 11.1615 23.2831 11.1644L23.2832 11.1641ZM23.7296 11.2175C23.9799 11.0881 24.21 11.0535 24.2269 11.3285C24.0253 11.7467 23.5778 11.9249 23.107 11.6515C23.3145 11.5041 23.5212 11.3251 23.7296 11.2175ZM18.6803 15.8637C19.1538 15.3 20.9609 13.6683 21.6018 13.6322C23.0265 12.8902 24.4016 11.6221 25.6941 10.6693C25.7033 10.6328 25.712 10.5967 25.721 10.5609C25.8028 10.5132 25.8411 10.5148 25.8362 10.5648C26.5779 10.0168 32.0237 5.43868 32.2975 6.27628C32.3604 6.46803 25.9463 11.1683 25.3292 11.652C24.701 12.1447 18.9556 17.2473 18.3245 16.5276C18.328 16.2579 18.4469 16.0365 18.6803 15.8637ZM18.2148 19.5843C18.4197 19.4423 18.5839 19.2577 18.7335 19.0583C18.9731 19.2543 19.2477 19.3681 19.5573 19.4C19.8853 19.3308 19.8853 19.3308 19.9142 19.6217C19.8077 19.7021 19.7007 19.7823 19.5945 19.8624C19.5206 20.024 19.4054 20.1132 19.2592 20.1459C19.0604 20.3972 18.8026 20.5304 18.4855 20.5457C18.1226 20.6918 18.0987 20.6814 18.2166 20.4029C18.3455 20.2474 18.4131 20.0708 18.4189 19.8731C18.3505 19.7769 18.2827 19.6804 18.2148 19.5843ZM18.049 19.6217L18.0872 19.5795C18.0724 19.5953 18.0596 19.6127 18.0454 19.6291C17.9097 19.9182 17.8244 20.0803 17.7204 20.1847C17.7963 19.9756 17.9056 19.7912 18.0454 19.6291C18.0467 19.6265 18.0478 19.6243 18.049 19.6217ZM14.9956 20.8296C15.025 20.8018 15.7808 20.4093 15.4703 20.8372C15.9083 20.9095 16.2408 21.0781 16.4846 21.3162C16.4694 21.2933 16.4546 21.2654 16.4407 21.2304C16.581 21.0008 16.7429 20.8346 16.9661 20.8477C16.9274 20.9295 16.8854 21.0116 16.8509 21.0931C16.7694 21.2858 16.6496 21.4403 16.5425 21.3764C17.9668 22.9253 15.9964 27.0909 14.4051 27.6833C10.2533 29.2289 13.4406 22.9857 14.2035 23.4852C14.6155 23.7554 12.8619 26.2659 13.0888 26.7405C13.7923 28.2124 15.7037 25.8 16.055 25.127C16.0247 25.1458 15.9942 25.1645 15.9634 25.1836C15.9787 25.108 15.9936 25.0325 16.0089 24.9567C16.0666 24.9285 16.1175 24.9139 16.1632 24.9101C16.6491 23.8449 16.7323 21.2891 14.9512 21.4606C14.9148 21.5139 14.8759 21.5658 14.8287 21.6132C14.8287 21.6174 14.8289 21.6214 14.8291 21.6258L14.8138 21.6294C14.8191 21.6242 14.8234 21.6184 14.8286 21.6132C14.8273 21.5672 14.825 21.5216 14.8235 21.4758C14.6065 21.5064 14.1077 21.8126 13.9417 21.7041C13.4232 21.3653 14.8329 20.8466 14.9956 20.8296ZM15.3738 37.3918C15.3342 37.4166 15.2949 37.442 15.2558 37.4672C15.2367 37.3769 15.3387 37.2385 15.3738 37.3918ZM14.1054 31.9163C14.0023 32.0249 14.1455 30.7883 14.6117 31.3647C15.0209 31.8675 14.1416 31.8781 14.1054 31.9163ZM14.5972 42.5172C14.5998 42.677 14.5025 42.7524 14.3051 42.7434C14.2997 42.5803 14.397 42.505 14.5972 42.5172ZM9.10728 46.8623C8.86586 47.0065 8.62057 47.0773 8.37063 47.0572C8.57117 46.9341 8.72404 46.7656 8.82924 46.5515C7.79257 45.0237 10.3581 39.7689 11.6611 39.9279C11.5985 39.8401 11.8482 39.4858 11.9253 39.7421C11.9214 39.7962 11.8994 39.8444 11.8588 39.8866C11.8053 39.9188 11.7647 39.9357 11.7334 39.9426C11.8053 39.9637 11.8731 40.002 11.9352 40.0616C12.318 40.4256 7.83505 44.5228 9.41968 46.3677C9.52061 46.3717 9.62049 46.3608 9.71943 46.3352C9.66709 46.3942 9.6145 46.4493 9.56176 46.5021C10.0442 46.8651 10.7375 46.6916 11.1725 46.3505C11.1733 46.2918 11.174 46.233 11.1745 46.1741C11.2054 46.1262 11.238 46.0788 11.2725 46.0318C11.3515 46.0029 11.4307 45.9745 11.5098 45.9456C11.6974 45.5869 13.3533 40.8734 13.0987 40.9724C13.4144 40.8493 13.5922 41.6959 13.6079 41.8389C13.7456 43.4278 11.4665 48.8525 9.10728 46.8623ZM12.9525 48.6865C12.6248 49.0199 12.314 49.0882 12.0206 48.8911C12.0667 48.61 12.2101 48.3791 12.4517 48.1984C12.6186 48.3612 12.7858 48.5238 12.9525 48.6865ZM8.78729 50.3155C8.72923 50.3943 8.14958 50.5983 8.11016 50.43C8.06688 50.2474 8.63589 49.6146 8.83243 49.6896C8.89862 49.9021 8.8833 50.1108 8.78729 50.3155ZM9.89786 32.9359C9.95925 32.888 10.0274 32.8778 10.1027 32.9061C10.2586 33.0396 9.6651 33.3156 9.89786 32.9359ZM9.89001 30.2292C9.896 30.2089 9.90212 30.187 9.90812 30.1653C9.96857 30.1511 9.98282 30.1727 9.95073 30.23C9.93195 30.2298 9.91305 30.2296 9.89001 30.2292ZM10.2557 39.4939C10.2365 39.5051 10.2107 39.5272 10.2001 39.5248C10.1894 39.5221 10.1941 39.4957 10.1918 39.4799C10.2384 39.431 10.2595 39.4358 10.2557 39.4939ZM10.2163 31.1977L10.2398 31.0699L10.3378 31.0929L10.2163 31.1977ZM10.7902 29.8733C10.8114 29.8331 10.8321 29.7929 10.853 29.7525C10.8352 29.7922 10.8171 29.8319 10.7996 29.8714C10.8212 29.9453 10.6231 30.5046 10.4075 30.2977C10.2756 30.1712 10.7902 29.8733 10.7902 29.8733ZM10.7557 27.892C10.8458 28.0125 10.6516 28.1486 10.5545 28.0997C10.438 27.957 10.6771 27.7876 10.7557 27.892ZM11.4611 30.7816C11.6659 30.6867 11.8669 30.5841 12.0636 30.4717C11.8922 30.6704 11.6838 30.7479 11.4619 30.7823C11.4616 30.7821 11.4613 30.7819 11.4611 30.7816C11.3286 30.843 11.1949 30.9019 11.0589 30.956C10.9987 30.8611 10.9281 30.7752 10.8826 30.6692C10.7083 30.268 11.2652 30.355 11.3817 30.4338C11.3364 30.5972 11.374 30.7054 11.4611 30.7816ZM11.5938 29.5453C11.6288 29.3545 11.7404 29.1819 11.9229 29.0263C11.8227 29.2051 11.713 29.3781 11.5938 29.5453ZM11.8318 33.93C11.8332 33.8506 11.8351 33.7711 11.8367 33.6923C12.4433 33.59 11.9141 33.9668 11.8318 33.93ZM12.2474 42.0209C12.3664 41.8571 12.4852 41.6933 12.604 41.5294C12.4852 41.6933 12.3664 41.8571 12.2479 42.0212C12.2181 42.3748 12.0391 42.5508 11.6828 42.5935C11.6838 42.5063 11.6848 42.4191 11.6853 42.3314C11.7163 42.2832 11.7492 42.236 11.7836 42.1892L11.7837 42.189C11.938 42.1329 12.0926 42.0767 12.2474 42.0209ZM11.3993 37.7742L11.0393 38.0619C11.1512 37.952 11.2728 37.8545 11.3993 37.7742ZM13.1601 22.7829C13.2619 22.6972 13.3637 22.6114 13.4654 22.5255C13.7385 22.7001 13.3691 22.9013 13.1601 22.7829ZM5.75692 46.544C5.73748 46.5402 5.70218 46.5452 5.70032 46.531C5.69273 46.4611 5.91392 46.3778 5.75692 46.544ZM5.48314 55.1141C5.38406 54.9792 5.28525 54.8447 5.18605 54.7099C4.19159 52.3923 5.64786 47.7724 6.1359 45.4532C6.90611 41.7952 7.58497 38.134 8.40059 34.4811C9.01939 31.7087 9.50397 28.9151 10.157 26.1541C10.5377 24.5449 12.2588 18.2737 14.6159 18.5883C14.5814 18.5449 14.6022 18.4967 14.6787 18.4438C14.9032 18.2729 14.846 18.5815 14.6952 18.6192C14.3436 18.2983 11.2075 24.3519 11.0228 24.9265C10.1712 27.5802 9.77642 30.3613 9.21741 33.0841C9.41329 33.0466 9.30529 33.2494 9.24084 33.3225C9.2206 33.3061 9.20036 33.2897 9.18012 33.2732C8.38434 37.3172 7.75475 41.3901 6.95498 45.4269C6.79638 46.2268 5.8211 54.9968 5.48314 55.1141ZM7.43183 45.0934L7.43196 45.0931L7.43156 45.0932C7.43929 45.0542 7.44728 45.0151 7.4554 44.9763C7.64503 44.9691 7.53637 45.0444 7.43183 45.0934ZM7.54755 53.4176C7.42797 53.5329 7.3743 53.5047 7.38735 53.3326C7.51 53.2145 7.56326 53.2428 7.54755 53.4176ZM6.60543 52.9742C6.56415 52.7746 6.64178 52.6674 6.8378 52.6519C6.9105 52.8804 6.83287 52.9879 6.60543 52.9742ZM9.63074 55.2419C9.86271 55.0257 9.9759 55.0427 9.97057 55.2928C9.79373 55.4421 9.68028 55.4253 9.63074 55.2419ZM10.8335 53.2634L10.8333 53.2637C10.7576 53.4486 10.6815 53.6333 10.6066 53.817C10.3806 53.9837 9.99508 53.1029 10.8333 53.2637L10.8337 53.2622L10.8343 53.2631L10.8335 53.2634ZM11.7885 56.6593C11.6972 56.7564 11.6059 56.8531 11.5147 56.9495L11.5149 56.9499C11.4215 57.0457 11.3282 57.142 11.2347 57.2383C11.1188 56.7859 11.3057 56.1759 11.7885 56.6593ZM11.5971 57.4454C11.1202 57.4358 11.9966 56.6176 11.8736 56.7432C11.8972 56.8484 11.9299 56.9483 11.9414 57.0603C11.9338 57.2995 11.8189 57.428 11.5971 57.4454ZM11.2416 54.4833C11.3074 54.2509 11.4782 54.1094 11.7541 54.0594C12.4244 53.9905 11.3524 54.9628 11.2416 54.4833ZM12.1222 57.8265C12.2692 57.7443 12.3523 57.7841 12.4229 57.8476C12.2852 57.912 12.1936 57.8881 12.1222 57.8265ZM12.6399 50.493C11.5485 51.2638 10.4623 52.0632 9.39105 52.8672C9.18105 53.0248 6.17504 56.0397 6.23523 56.0591C6.07144 55.7493 6.10247 55.4349 6.32925 55.1162C7.02595 53.3978 9.2242 52.1301 10.7871 51.2621C10.5582 51.0727 10.9127 50.8141 11.1139 51.0797C11.8589 50.6534 24.0619 41.7379 24.7594 42.8299C25.0318 43.2567 22.6924 44.5291 22.2475 44.718C22.2136 45.1895 22.0469 45.3131 21.6676 45.3043C21.6384 45.2227 21.6356 45.1325 21.6514 45.0369C18.8402 47.0973 15.5053 48.4686 12.6399 50.493ZM21.9706 49.3419L21.9669 49.3448C21.9658 49.3443 21.9652 49.3439 21.9652 49.3439C21.9652 49.3439 21.967 49.3399 21.9685 49.3379C21.0397 47.9525 23.5105 46.9721 22.6583 48.4264C22.4758 48.7377 22.2025 49.0348 21.9685 49.3379L21.9706 49.3419ZM16.6657 52.2498C16.4915 52.3921 16.3099 52.5554 16.1641 52.4619C15.9725 52.339 16.3725 52.0368 16.6657 52.2498ZM15.7892 53.3213C15.7638 53.2986 15.7385 53.276 15.7129 53.2539C15.8396 53.1678 15.8769 53.1779 15.7892 53.3213ZM13.346 56.8931C13.5011 56.5288 13.5011 56.5288 13.7404 56.6435C13.6187 56.778 13.495 56.9035 13.346 56.8931ZM13.62 54.5667C13.7573 54.427 13.9047 54.3475 14.0571 54.2947C14.1054 54.5945 13.8528 54.8018 13.62 54.5667ZM22.5047 59.2727C21.369 60.8702 17.7797 59.971 16.2673 58.3786C16.3561 58.5796 16.3791 58.7719 16.3423 58.9999C16.2184 58.8446 15.945 58.8605 15.8659 58.6542C15.955 58.5165 16.0639 58.3981 16.197 58.3025C15.7211 57.7712 15.4774 57.168 15.6289 56.5568C16.463 53.1918 21.1942 56.5204 20.7555 56.9517C20.9003 56.8124 14.2091 54.6633 16.4324 57.662C16.4706 57.5359 16.5443 57.362 16.676 57.0517C16.9358 56.9073 17.0154 57.0709 17.1539 57.1328C16.968 57.3743 16.7822 57.6155 16.5962 57.8572C17.3781 58.6819 18.6181 59.3696 19.7331 59.5352C20.3225 59.6226 22.4956 58.5438 22.6334 58.6161C22.7711 58.8457 22.7281 59.0646 22.5047 59.2727ZM20.9987 58.4278C21.1157 58.6605 20.7043 58.9545 20.5254 58.967C20.2881 58.9837 20.8887 58.2098 20.9987 58.4278ZM21.1032 57.4948C21.1246 57.5098 21.098 57.5801 21.0938 57.6247C20.7543 58.0238 20.8824 57.3404 21.1032 57.4948ZM20.1367 57.903C19.8723 58.1186 19.4525 58.6499 19.207 58.2297C19.0159 58.1952 18.8136 58.3056 18.6064 58.4909C18.4662 58.3624 18.3265 58.2338 18.1867 58.1052C18.6494 57.652 19.271 57.3411 19.9247 57.3291C19.9914 57.3753 20.0583 57.4211 20.125 57.4673C20.2566 57.6089 20.2603 57.754 20.1367 57.903ZM18.0474 58.2415C18.0431 58.5132 18.0173 58.5386 17.7522 58.5309C17.8505 58.4345 17.9487 58.3379 18.0474 58.2415ZM25.3988 61.5265C25.4161 61.3819 25.4546 61.2425 25.5141 61.1084C25.6145 60.9755 26.53 60.215 26.6513 60.4142C26.2478 60.6909 25.9873 61.126 25.3988 61.5265ZM25.6916 56.7662C25.9869 56.5649 25.9956 56.5664 26.003 56.8178C25.8837 56.8508 25.7799 56.8336 25.6916 56.7662ZM26.5783 57.1621C26.5907 57.1643 26.2675 57.845 26.0558 57.6836C25.8574 57.5326 26.4915 57.146 26.5783 57.1621ZM26.6159 58.3731C26.525 58.4718 26.4276 58.5248 26.3395 58.4961C26.1237 58.2901 26.9496 58.012 26.6159 58.3731ZM27.1131 58.1663C27.1513 58.0026 27.2404 57.9294 27.3799 57.9463C27.3489 58.1289 27.2602 58.2021 27.1131 58.1663ZM25.6676 56.1655C24.817 56.3335 23.6712 56.0764 22.9616 55.6214C21.8588 54.9297 19.5319 53.9517 20.6614 52.2867C21.2408 51.4324 22.8582 51.2688 23.7735 51.5706C23.6752 51.3925 23.6336 51.1825 23.6489 50.9391C23.6337 51.1826 23.6752 51.3929 23.7738 51.5705C23.7806 51.5729 23.7867 51.5746 23.7931 51.5769C24.0346 51.2897 24.3251 51.0797 24.6636 50.9472C24.3742 51.1577 24.0851 51.3678 23.7964 51.5778C24.8041 51.9085 25.647 51.8897 26.4558 52.7351C26.4571 52.7322 26.4593 52.7289 26.4607 52.7257C26.4593 52.7289 26.4571 52.7321 26.4558 52.7351C26.8002 53.1061 26.7566 53.2682 26.324 53.2209C26.3394 53.2368 26.3559 53.2513 26.3699 53.2686C26.4967 53.1505 25.6396 54.0652 25.5154 53.8108C25.3808 53.5369 25.9494 53.253 26.1041 53.1675C25.1849 52.9073 24.4424 52.4137 23.4855 52.2884C21.7613 52.0624 20.0836 52.8679 21.9256 54.4793C22.5733 55.0458 23.4975 55.4483 24.3315 55.5726C24.7134 55.6294 27.3216 54.7812 27.3284 54.7861C27.9454 55.2295 25.8963 56.1204 25.6676 56.1655ZM28.0894 54.9958C28.0524 55.1044 27.9691 55.1535 27.8392 55.143C27.8407 55.0636 27.8426 54.9841 27.8443 54.9049C28.0488 54.7936 28.1303 54.8237 28.0894 54.9958ZM29.2264 57.5219C29.2389 57.464 29.2698 57.4458 29.3187 57.4677C29.3063 57.5257 29.2754 57.5439 29.2264 57.5219ZM29.0491 52.5462C28.1382 52.3154 27.0232 51.786 26.3077 51.1538C24.991 49.9896 24.7158 48.4368 26.5804 47.733C27.6347 47.335 28.3899 47.753 29.4133 47.7707C29.5062 47.7148 29.5434 47.7129 29.5586 47.7715C29.6938 47.7707 29.8273 47.7694 29.9469 47.793C30.3105 47.8601 32.1486 49.4174 31.4034 49.7354C31.1187 49.8578 30.2164 48.8589 29.9111 48.6789C29.7645 48.7957 29.4938 48.8455 29.6462 48.6021C27.9547 48.4803 23.6561 48.4198 26.8295 50.9802C27.4223 51.4585 28.2932 51.793 29.0246 51.9656C29.4069 52.0561 32.0083 51.6469 32.0627 51.7187C32.7289 52.5752 29.2862 52.6065 29.0491 52.5462ZM30.185 49.478C30.0939 49.5765 29.9963 49.6295 29.9084 49.6009C29.6927 49.3949 30.5184 49.117 30.185 49.478ZM32.051 58.149C31.9942 58.2204 31.9256 58.2402 31.8534 58.2078C31.8549 58.1285 31.8565 58.0489 31.8582 57.9696C32.0534 57.9369 32.2175 57.9394 32.051 58.149ZM30.2495 57.0272C30.2147 57.0355 30.046 57.0252 30.1475 56.9431C30.1817 56.9708 30.2158 56.9986 30.2495 57.0272ZM29.7056 59.8308C30.001 59.6295 30.0099 59.6311 30.0171 59.8824C29.8976 59.9154 29.794 59.8983 29.7056 59.8308ZM30.0697 60.7481C29.8716 60.5969 30.5054 60.2109 30.5922 60.2267C30.6045 60.2289 30.2817 60.9097 30.0697 60.7481ZM30.3535 61.5609C30.3055 61.5148 30.3282 61.4412 30.3958 61.365C30.799 60.9104 30.7105 61.6767 30.3535 61.5609ZM30.792 62.4902C30.4485 60.8985 32.1067 60.3291 33.3438 60.4512C33.6221 60.4785 36.4478 61.483 35.9375 62.2598C35.8062 62.4593 33.7837 61.5377 33.6087 61.4374C32.936 61.0529 31.3217 60.96 31.3165 62.1265C31.3512 62.1014 31.3852 62.0746 31.4209 62.052L31.3166 62.1351C31.3262 64.4252 36.3769 64.2252 36.403 64.9878C36.4375 65.9528 31.107 63.9489 30.792 62.4902ZM36.9734 63.6599C36.9539 63.558 37.0264 63.4504 37.1105 63.3423C37.1993 63.4803 37.1538 63.586 36.9734 63.6599ZM37.0362 63.2358C36.9459 63.0175 37.0076 62.8276 37.221 62.6661C37.3495 62.5834 37.4607 62.6203 37.5546 62.7766C37.4737 63.0717 37.2467 63.1412 37.0362 63.2358ZM35.7013 58.8569C35.6291 58.1738 35.7407 57.7169 35.9724 57.4306C35.9589 57.4382 35.9455 57.4458 35.9294 57.4528C35.7021 57.2991 35.7196 57.1941 35.9829 57.1371C36.0564 57.2105 36.0832 57.2746 36.0665 57.3302C37.2759 56.2002 40.8914 58.5844 40.616 59.0018C40.4778 59.2106 38.1203 58.1322 37.9444 58.0415C35.9544 56.8955 36.058 59.4807 37.2144 60.4964C38.111 61.284 41.5015 60.6126 41.6225 60.776C42.2146 61.5693 39.1849 61.7834 38.817 61.7004C37.4846 61.4013 35.8607 60.37 35.7013 58.8569ZM39.3072 59.372C39.2948 59.6841 39.1466 59.8436 38.8621 59.8515C38.364 59.2759 39.2761 59.0566 39.3072 59.372ZM39.0993 62.8267C39.0384 63.0102 38.9584 63.0361 38.8585 62.9038C38.687 62.6082 38.7472 62.3702 39.1668 62.3065C39.2394 62.4746 39.1859 62.6266 39.0055 62.7632C39.0597 62.7576 39.123 62.7487 39.0993 62.8267ZM38.8406 63.2201C38.8039 63.2903 38.7675 63.3604 38.731 63.431C38.6278 63.3391 38.6002 63.1634 38.8406 63.2201ZM37.8831 62.1301C37.9106 62.0818 37.9379 62.0336 37.9652 61.9853C37.9711 62.038 37.9462 62.0866 37.8831 62.1301ZM51.7207 60.0185C51.6393 60.2713 51.5553 60.2788 51.4016 60.3057C51.3939 60.1163 51.777 59.8423 51.7207 60.0185ZM56.5151 57.5504C56.5645 57.5581 56.5875 57.5961 56.5931 57.654C56.595 57.6604 56.5967 57.6668 56.5987 57.6737C56.5874 57.6245 56.5595 57.5834 56.5151 57.5504ZM55.541 57.8405C55.5788 57.959 55.6166 58.0776 55.654 58.1964C55.4279 58.492 55.1384 58.6722 54.7854 58.7372C54.7042 58.5076 54.7433 58.3091 54.903 58.141C53.5551 58.7245 38.9127 67.1821 38.6157 66.0116C38.5493 65.7466 43.5219 63.27 47.4314 61.3665C47.4285 61.3658 47.4253 61.3662 47.4225 61.3654C47.2118 60.8571 47.9141 60.1183 48.051 60.5471C48.1072 60.7238 47.9739 61.0043 47.7977 61.1882C49.8587 60.1864 51.5574 59.3753 51.9475 59.1866C51.8288 58.9815 52.1782 59.0107 52.2343 59.0404C52.2439 59.0352 52.2533 59.0304 52.2627 59.0252C53.0956 58.5499 53.9193 58.0254 54.7441 57.5351C55.2017 57.2628 56.5835 55.7265 56.845 55.6503C56.9873 55.6803 57.0628 55.7779 57.0709 55.9436C57.2167 56.8011 56.1691 57.4877 55.541 57.8405ZM57.6517 55.5952C57.5619 55.5865 57.5925 55.5252 57.6625 55.4466C57.6588 55.4964 57.6553 55.5458 57.6517 55.5952ZM58.5807 56.4734C58.4813 56.6002 58.3608 56.7154 58.2499 56.836C58.2708 56.5883 58.29 56.3401 58.3078 56.092C58.0868 56.1678 57.9198 56.1211 57.8071 55.9514C58.0494 55.6866 58.097 55.2859 58.4117 55.1191C59.3788 54.6061 58.775 56.2253 58.5807 56.4734ZM61.3232 51.3022C61.2105 51.1942 61.0984 51.0863 60.9856 50.9782C61.4402 50.8079 61.4744 50.8409 61.3232 51.3022ZM61.3708 50.4037C61.3439 50.1482 61.4501 50.0537 61.6891 50.1198C61.7049 50.335 61.5988 50.4296 61.3708 50.4037ZM65.124 36.1563C65.0177 36.2696 64.9054 36.2933 64.7863 36.2267C64.7705 36.0357 64.9052 35.8458 65.1172 36.0234C65.2075 35.9795 65.2546 35.9978 65.2608 36.074C65.2664 36.145 65.1747 36.2128 65.124 36.1563ZM65.9993 29.5287C65.9804 29.5285 65.9613 29.5281 65.9386 29.5277C65.9444 29.5072 65.9505 29.4858 65.9565 29.4641C66.0171 29.4497 66.0315 29.4713 65.9993 29.5287ZM64.3864 32.8442C64.4827 32.8693 64.5788 32.8944 64.6748 32.9193C65.0028 32.8499 65.0028 32.8499 65.0319 33.1407C64.9253 33.2211 64.8187 33.3014 64.7121 33.3819C64.638 33.5433 64.523 33.6322 64.3767 33.665C64.3415 33.694 64.3057 33.7224 64.2704 33.751C63.8495 36.1528 62.0104 57.3541 56.338 54.5167C56.0744 54.6761 56.5844 53.4677 56.9822 53.6528C57.149 53.7307 56.696 54.1549 56.6509 54.2001C58.7719 53.5538 60.1203 51.5861 60.8679 49.5928C60.5804 49.6122 60.4089 49.3968 60.3532 48.9457C59.9837 48.856 60.6374 47.4602 61.3153 48.0152C62.3834 43.4557 62.77 38.7307 63.5137 34.1C63.0243 34.2878 63.499 33.6224 63.5364 33.3923C63.4685 33.2961 63.4008 33.1996 63.3328 33.1034C63.4607 33.0146 63.5717 32.9079 63.6743 32.7929C63.733 32.0176 65.455 19.8343 66.2306 19.9752C66.9177 20.0996 64.4503 32.1933 64.3864 32.8442ZM66.8046 27.3205C66.7624 27.3936 66.6952 27.4195 66.6029 27.3986C66.4072 27.1581 66.9547 27.0995 66.8046 27.3205Z"
              fill="#07679b" />
    </g>
</svg>