<svg width="64" height="34" viewBox="0 0 64 34" fill="none" xmlns="http://www.w3.org/2000/svg">
<path d="M0.495943 15.684C2.01681 13.8394 3.6106 12.162 5.26168 10.6518C12.7306 3.83239 21.5954 0.190164 30.7362 0.00726898C39.8562 -0.175626 49.2106 3.09036 57.664 10.0874C59.6848 11.7596 61.638 13.6251 63.5183 15.6997C64.1224 16.3685 64.1537 17.3562 63.6381 18.0564C61.487 21.1029 59.0129 23.7105 56.3098 25.8739C49.544 31.2928 41.325 33.9578 32.9967 33.9996C24.6996 34.0362 16.2984 31.46 9.14198 26.386C5.94399 24.1181 2.99079 21.3537 0.402191 18.1034C-0.175948 17.3718 -0.118655 16.3424 0.495943 15.684ZM32.0019 13.8289C32.3092 13.8289 32.6113 13.8759 32.8925 13.9543C32.653 14.2156 32.5123 14.5657 32.5123 14.9472C32.5123 15.7624 33.1686 16.4208 33.9811 16.4208C34.3822 16.4208 34.7415 16.264 35.0072 16.0027C35.1113 16.3163 35.1634 16.6507 35.1634 16.9956C35.1634 18.7462 33.7467 20.1675 32.0019 20.1675C30.2571 20.1675 28.8404 18.7462 28.8404 16.9956C28.8404 15.2503 30.2571 13.8289 32.0019 13.8289ZM32.0019 5.65611C35.1218 5.65611 37.95 6.92593 39.9969 8.97958C42.0438 11.0332 43.3095 13.8655 43.3095 17.0008C43.3095 20.1309 42.0438 22.9684 39.9969 25.0221C37.95 27.0757 35.127 28.3455 32.0019 28.3455C28.882 28.3455 26.0538 27.0757 24.0069 25.0221C21.96 22.9684 20.6943 20.1362 20.6943 17.0008C20.6943 13.8707 21.96 11.0332 24.0069 8.97958C26.0538 6.92593 28.882 5.65611 32.0019 5.65611ZM37.4447 11.5401C36.0541 10.1449 34.1269 9.27743 32.0019 9.27743C29.8768 9.27743 27.9497 10.1397 26.5591 11.5401C25.1684 12.9353 24.3038 14.8688 24.3038 17.0008C24.3038 19.1329 25.1632 21.0663 26.5591 22.4616C27.9497 23.8568 29.8768 24.7242 32.0019 24.7242C34.1269 24.7242 36.0541 23.862 37.4447 22.4616C38.8354 21.0663 39.7 19.1329 39.7 17.0008C39.7 14.8688 38.8354 12.9353 37.4447 11.5401ZM7.75653 13.3952C6.54817 14.4978 5.38147 15.6892 4.26687 16.959C6.38671 19.4255 8.74614 21.5575 11.2722 23.3499C17.8036 27.9745 25.4444 30.326 32.9863 30.2947C40.4969 30.2581 47.9085 27.8543 54.0128 22.9684C56.0962 21.3015 58.0233 19.3419 59.7578 17.0897C58.3046 15.569 56.8254 14.1947 55.3254 12.951C47.57 6.53923 39.0646 3.55021 30.8092 3.7122C22.5746 3.87942 14.5484 7.19243 7.75653 13.3952Z" fill="black"/>
</svg>
