<svg width="64" height="28" viewBox="0 0 64 28" fill="none" xmlns="http://www.w3.org/2000/svg">
<path d="M0.606426 3.94341C0.394891 3.70819 0.232621 3.43227 0.129354 3.13221C0.0260863 2.83215 -0.0160515 2.51413 0.00546856 2.19723C0.0269887 1.88033 0.111723 1.57108 0.254588 1.28804C0.397454 1.005 0.595506 0.754 0.836862 0.550095C1.07822 0.346189 1.3579 0.193583 1.65914 0.101432C1.96038 0.00928002 2.27696 -0.0205176 2.58989 0.0138263C2.90282 0.0481703 3.20565 0.145948 3.48021 0.301293C3.75478 0.456639 3.99541 0.66635 4.18769 0.917847C6.5236 3.77926 9.11646 6.41683 11.9332 8.79692C18.5283 14.2545 25.3733 17.0122 32.1611 17.0069C38.9488 17.0017 45.7574 14.2545 52.3057 8.73389C55.0673 6.37602 57.6062 3.76474 59.8898 0.933605C60.2859 0.462498 60.8497 0.16748 61.4595 0.112246C62.0693 0.0570108 62.6762 0.24599 63.1491 0.638383C63.622 1.03078 63.923 1.5951 63.9872 2.20953C64.0513 2.82396 63.8734 3.43919 63.4919 3.9224C61.8659 5.92073 60.1279 7.82357 58.2866 9.62159L61.3629 12.4686C61.6127 12.6684 61.8192 12.9179 61.9694 13.2016C62.1197 13.4853 62.2106 13.7971 62.2365 14.1177C62.2624 14.4384 62.2228 14.7609 62.12 15.0654C62.0172 15.3699 61.8536 15.6499 61.6391 15.8879C61.4247 16.1259 61.1641 16.3169 60.8735 16.4491C60.5828 16.5813 60.2684 16.6518 59.9496 16.6562C59.6309 16.6607 59.3146 16.599 59.0205 16.475C58.7264 16.351 58.4606 16.1673 58.2397 15.9354L54.8094 12.7837C52.6326 14.5882 50.292 16.1816 47.8187 17.5427L49.7603 21.7449C49.9831 22.3053 49.9839 22.9308 49.7625 23.4919C49.541 24.053 49.1143 24.5066 48.5706 24.759C48.0269 25.0114 47.4078 25.0432 46.8416 24.8478C46.2753 24.6525 45.8051 24.2448 45.5283 23.7094L43.5815 19.5072C40.654 20.6583 37.5738 21.3663 34.441 21.6083V25.7579C34.4127 26.3621 34.1549 26.9321 33.7212 27.3496C33.2874 27.7671 32.711 28 32.1116 28C31.5122 28 30.9358 27.7671 30.5021 27.3496C30.0683 26.9321 29.8106 26.3621 29.7822 25.7579V21.6083C26.6571 21.3604 23.5846 20.6526 20.6625 19.5072L18.7053 23.7094C18.5844 24.0024 18.4059 24.2678 18.1807 24.4894C17.9555 24.7111 17.6881 24.8844 17.3948 24.9991C17.1014 25.1137 16.7881 25.1673 16.4737 25.1566C16.1593 25.1458 15.8503 25.071 15.5652 24.9366C15.2802 24.8022 15.0251 24.611 14.8153 24.3745C14.6054 24.138 14.4451 23.8611 14.3441 23.5605C14.2431 23.2598 14.2034 22.9416 14.2274 22.6251C14.2514 22.3086 14.3386 22.0002 14.4838 21.7186L16.4306 17.5164C13.9589 16.1573 11.6155 14.5732 9.42944 12.7837L6.01996 15.9354C5.79908 16.1673 5.53333 16.351 5.23919 16.475C4.94505 16.599 4.6288 16.6607 4.31005 16.6562C3.99131 16.6518 3.67686 16.5813 3.38624 16.4491C3.09561 16.3169 2.83499 16.1259 2.62056 15.8879C2.40613 15.6499 2.24245 15.3699 2.13968 15.0654C2.03692 14.7609 1.99725 14.4384 2.02315 14.1177C2.04905 13.7971 2.13996 13.4853 2.29024 13.2016C2.44052 12.9179 2.64696 12.6684 2.89677 12.4686L5.93147 9.66362C4.04976 7.86096 2.27184 5.9511 0.606426 3.94341Z" fill="black"/>
</svg>
