<svg width="64" height="42" viewBox="0 0 64 42" fill="none" xmlns="http://www.w3.org/2000/svg">
<path d="M63.8714 33.7163L57.9394 5.4505C57.2729 2.27388 54.4705 0 51.2259 0H45.479C43.5464 0 41.9791 1.56725 41.9791 3.49988C41.9791 5.43238 40.4118 6.99975 38.4793 6.99975H34.8613H29.1385H25.5215C23.5879 6.99975 22.0206 5.4325 22.0206 3.49988V2.59813C22.0206 0.664501 20.4544 0 18.5207 0H12.7739C9.52912 0 6.72687 2.27388 6.06037 5.4505L0.128114 33.7163C-0.213136 35.3455 0.134114 37.043 1.08886 38.4063C2.04362 39.7693 3.52087 40.6771 5.16824 40.9123L8.60212 41.4038C11.0392 41.751 13.4422 40.58 14.6712 38.4473L20.8084 27.7854C21.5579 26.4843 22.9471 25.6816 24.4484 25.6816H39.5511C41.0534 25.6816 42.4405 26.4843 43.1901 27.7854L49.3294 38.4473C50.5574 40.58 52.9605 41.751 55.3975 41.4038L58.8323 40.9123C60.4798 40.677 61.956 39.7693 62.9108 38.4063C63.8655 37.043 64.2138 35.3456 63.8714 33.7163ZM21.527 17.6979H17.1642V22.0596H13.7064V17.6979H9.34387V14.24H13.7065V9.87826H17.1644V14.24H21.5271L21.527 17.6979ZM48.954 8.56125C50.4083 8.56125 51.5873 9.74025 51.5873 11.1955C51.5873 12.6496 50.4083 13.8286 48.954 13.8286C47.4978 13.8286 46.3188 12.6496 46.3188 11.1955C46.3188 9.74025 47.4978 8.56125 48.954 8.56125ZM43.6846 19.098C42.2304 19.098 41.0504 17.9181 41.0504 16.4628C41.0504 15.0085 42.2304 13.8285 43.6846 13.8285C45.1399 13.8285 46.3189 15.0085 46.3189 16.4628C46.3188 17.9181 45.1398 19.098 43.6846 19.098ZM48.954 24.3655C47.4978 24.3655 46.3188 23.1855 46.3188 21.7313C46.3188 20.277 47.4978 19.098 48.954 19.098C50.4083 19.098 51.5873 20.277 51.5873 21.7313C51.5873 23.1855 50.4083 24.3655 48.954 24.3655ZM54.2204 19.098C52.7663 19.098 51.5873 17.9181 51.5873 16.4628C51.5873 15.0085 52.7663 13.8285 54.2204 13.8285C55.6756 13.8285 56.8556 15.0085 56.8556 16.4628C56.8555 17.9181 55.6756 19.098 54.2204 19.098Z" fill="black"/>
</svg>
