<svg width="123"
     height="114"
     viewBox="0 0 123 114"
     fill="none"
     xmlns="http://www.w3.org/2000/svg">
    <path fill-rule="evenodd"
          clip-rule="evenodd"
          d="M18.69 73.37L59.18 32.86C61.32 30.72 61.59 30.63 63.81 32.86L104.19 73.37V114H74.19V86.55C74.1874 85.657 73.8315 84.8014 73.2 84.17C72.5686 83.5385 71.713 83.1826 70.82 83.18H52.08C51.187 83.1826 50.3314 83.5385 49.7 84.17C49.0685 84.8014 48.7126 85.657 48.71 86.55V114H18.71V73.37H18.69ZM60.17 0.880001L0 57.38L14.84 65.17L57.34 22.31C60.98 18.65 61.02 18.57 64.63 22.15L108.04 65.15L122.88 57.36L62.62 0.790001C61.54 -0.209999 61.38 -0.339999 60.17 0.880001Z"
          fill="black" />
</svg>