<svg width="64"
     height="64"
     viewBox="0 0 64 64"
     fill="none"
     xmlns="http://www.w3.org/2000/svg">
    <path d="M32 4.80807C31.0365 4.80807 30.1042 4.84975 29.2135 4.9383C28.3229 5.02686 27.4219 5.15709 26.5208 5.33941C25.625 5.51652 24.7552 5.74052 23.9167 5.99577C23.0885 6.25102 22.2708 6.55315 21.4688 6.89175L21.4167 6.91779C20.5677 7.28244 19.7604 7.67312 18.9844 8.08986C18.2031 8.5118 17.4531 8.965 16.7396 9.44425C16.0208 9.9287 15.3229 10.4444 14.6615 10.9914C14 11.5383 13.3594 12.1166 12.7448 12.7364L12.724 12.7573C12.1094 13.372 11.5313 14.0075 10.9896 14.6638C10.4427 15.3306 9.92708 16.0234 9.44271 16.7423C8.96354 17.4508 8.51563 18.2009 8.09375 18.9823C7.67708 19.7584 7.28125 20.5711 6.91667 21.4149L6.89063 21.4722L6.85417 21.5452C6.52604 22.3266 6.23438 23.1288 5.98438 23.9466C5.72917 24.7749 5.51563 25.6292 5.33854 26.5147C5.15625 27.4159 5.02604 28.3119 4.9375 29.2079C4.84896 30.1039 4.80729 31.0311 4.80729 31.9948C4.80729 32.9585 4.84896 33.8909 4.9375 34.7817C5.02604 35.6725 5.15625 36.5737 5.33854 37.4749C5.52083 38.3708 5.73958 39.2408 6 40.0794C6.25521 40.8973 6.54688 41.7099 6.88542 42.5069C6.90625 42.5434 6.92188 42.5798 6.9375 42.6163C7.29688 43.4498 7.68229 44.2468 8.09896 45.0125C8.52083 45.7939 8.97396 46.544 9.44792 47.2525C9.93229 47.9766 10.4479 48.6694 11 49.3362C11.5313 49.9821 12.099 50.6072 12.6979 51.2063C12.7344 51.2375 12.7656 51.2688 12.7969 51.3052C13.401 51.9095 14.026 52.4721 14.6667 53.0034C15.3333 53.5504 16.026 54.0661 16.7448 54.5505C17.4531 55.0298 18.2031 55.4778 18.9844 55.8997C19.7604 56.3165 20.5729 56.7124 21.4167 57.077L21.526 57.1291C22.3177 57.4625 23.125 57.7542 23.9583 58.0094C24.7813 58.2647 25.6406 58.4783 26.5208 58.6554C27.4219 58.8377 28.3177 58.9679 29.2135 59.0565C30.1094 59.145 31.0365 59.1867 32 59.1867C32.9635 59.1867 33.8958 59.145 34.7865 59.0565C35.6771 58.9679 36.5781 58.8377 37.4792 58.6554C38.375 58.4731 39.2448 58.2543 40.0833 57.9938C40.9115 57.7386 41.7292 57.4364 42.5365 57.0926L42.5833 57.0718V57.0666C43.4323 56.7019 44.2396 56.3113 45.0156 55.8945C45.7969 55.4726 46.5469 55.0194 47.2604 54.5401C47.9792 54.0557 48.6771 53.54 49.3385 52.993C49.9896 52.4565 50.6146 51.8887 51.224 51.2792C51.2552 51.2479 51.2813 51.2167 51.3177 51.1854C51.9167 50.5864 52.4792 49.9613 53.0104 49.3205C53.5573 48.6538 54.0781 47.9609 54.5625 47.2369C55.0417 46.5284 55.4896 45.7783 55.9115 44.9969C56.3281 44.2207 56.724 43.4133 57.0885 42.5642L57.1406 42.4496C57.474 41.663 57.7656 40.8556 58.0208 40.0273C58.276 39.1991 58.4896 38.3448 58.6667 37.4592C58.849 36.558 58.9792 35.6621 59.0677 34.7661C59.1563 33.8701 59.1979 32.9429 59.1979 31.9792C59.1979 31.0155 59.1563 30.083 59.0677 29.1923C58.9792 28.3015 58.849 27.4003 58.6667 26.4991C58.4844 25.6031 58.2656 24.7332 58.0052 23.8945C57.75 23.0663 57.4479 22.2484 57.1042 21.441L57.0833 21.3941C56.7188 20.545 56.3281 19.7376 55.9115 18.9614C55.4896 18.18 55.0365 17.4299 54.5625 16.7215C54.0781 16.0026 53.5625 15.3046 53.0156 14.643C52.4844 13.9971 51.9115 13.3668 51.3073 12.7625C51.2708 12.7312 51.2396 12.7 51.2135 12.6687C50.6094 12.0645 49.9896 11.5019 49.3438 10.9705C48.6771 10.4236 47.9844 9.90786 47.2656 9.42341C46.5521 8.94416 45.8073 8.49617 45.026 8.07423C44.25 7.6575 43.4427 7.2616 42.5938 6.90217L42.4948 6.85528C41.7031 6.52189 40.8906 6.22497 40.0573 5.96972C39.2344 5.71447 38.375 5.5009 37.4896 5.32378C36.5885 5.14146 35.6927 5.01123 34.7969 4.92268C33.8958 4.84975 32.9635 4.80807 32 4.80807ZM32.9896 16.237C34.1302 16.237 35.026 16.5652 35.6771 17.2163C36.3229 17.8675 36.651 18.7583 36.651 19.9095C36.651 21.0763 36.0938 22.1078 34.9792 23.0194C33.8542 23.9258 32.5521 24.3842 31.0625 24.3842C29.9479 24.3842 29.0573 24.0716 28.375 23.4465C27.6927 22.811 27.3542 21.9932 27.3542 20.9722C27.3542 19.6855 27.9115 18.5812 29.0156 17.6383C30.1146 16.7006 31.4427 16.237 32.9896 16.237ZM39.349 47.7734H24.651V45.299H27.4115V30.1872H24.651V28.2181H31.5208C33.2552 28.2181 34.9635 28.0098 36.651 27.5826V45.299H39.349V47.7734ZM25.5833 0.625102C26.6042 0.421944 27.6615 0.265668 28.75 0.161485C29.8385 0.0520918 30.9219 0 32 0C33.0781 0 34.1615 0.0520918 35.25 0.161485C36.3385 0.265668 37.3958 0.421944 38.4167 0.625102C39.4271 0.82826 40.4375 1.08351 41.4479 1.39606C42.4271 1.69819 43.3958 2.05242 44.3542 2.45873L44.4531 2.4952L44.4844 2.50562C45.4479 2.92235 46.3854 3.37555 47.2865 3.86521C48.1771 4.34967 49.0573 4.881 49.9271 5.46443C50.776 6.03744 51.599 6.64692 52.3906 7.29806C53.1823 7.94921 53.9375 8.63161 54.651 9.35569C55.3698 10.0746 56.0573 10.8299 56.7083 11.6165C57.3594 12.4083 57.9688 13.2261 58.5417 14.0804C59.1094 14.9295 59.6406 15.8099 60.1354 16.7163H60.1406C60.6302 17.6227 61.0885 18.5603 61.5 19.524C61.5104 19.5501 61.5208 19.5761 61.5313 19.6021C61.9375 20.5554 62.2917 21.5295 62.599 22.5193C62.9167 23.5403 63.1771 24.5613 63.3802 25.5875C63.5833 26.6085 63.7396 27.666 63.8438 28.7547C63.9479 29.8434 64 30.9269 64 32.0052C64 33.0835 63.9479 34.167 63.8385 35.2557C63.7344 36.3445 63.5781 37.4019 63.375 38.4229C63.1719 39.4335 62.9167 40.4441 62.6042 41.4547C62.3021 42.4392 61.9427 43.4133 61.5365 44.3822L61.5156 44.4291L61.4896 44.4864C61.0729 45.4501 60.6198 46.3878 60.1302 47.2889C59.6458 48.1797 59.1146 49.0601 58.5313 49.93C57.9583 50.7791 57.349 51.6022 56.6979 52.3939C56.0469 53.1857 55.3646 53.9359 54.6406 54.6547C53.9219 55.3736 53.1667 56.0612 52.375 56.7124C51.5833 57.3635 50.7656 57.973 49.9167 58.5408C49.0677 59.1086 48.1875 59.6399 47.2813 60.1348C46.3542 60.6349 45.4219 61.0933 44.474 61.4996C44.4479 61.51 44.4219 61.5204 44.3906 61.5309C43.4375 61.9372 42.4635 62.2914 41.474 62.5987C40.4531 62.9165 39.4323 63.1769 38.4115 63.3801C37.3906 63.5833 36.3333 63.7395 35.2448 63.8437C34.1563 63.9479 33.0729 64 31.9948 64C30.9167 64 29.8333 63.9479 28.7448 63.8437C27.6563 63.7395 26.599 63.5833 25.5781 63.3801C24.5677 63.1769 23.5573 62.9217 22.5469 62.6092C21.5625 62.307 20.5885 61.9476 19.625 61.5413L19.5208 61.4996C18.5573 61.0829 17.6198 60.6297 16.7188 60.14C15.8281 59.6555 14.9479 59.1242 14.0781 58.5408C13.2292 57.973 12.4063 57.3583 11.6198 56.7124C10.8281 56.0612 10.0729 55.3736 9.35417 54.6547C8.63542 53.9359 7.94792 53.1805 7.29688 52.3939C6.64583 51.6022 6.03646 50.7791 5.46354 49.93C4.89583 49.0809 4.36458 48.2006 3.86979 47.2942C3.36458 46.3669 2.91146 45.4293 2.50521 44.4812C2.49479 44.4552 2.48438 44.4291 2.47396 44.4031C2.06771 43.4498 1.71354 42.4757 1.40625 41.4859C1.08854 40.4649 0.828125 39.4387 0.625 38.4177C0.421875 37.3967 0.265625 36.3392 0.161458 35.2505C0.0520833 34.167 0 33.0835 0 32.0052C0 30.9269 0.0520833 29.8434 0.161458 28.7547C0.265625 27.666 0.421875 26.6085 0.625 25.5875C0.828125 24.5769 1.08333 23.5663 1.39583 22.5558C1.69792 21.5764 2.05208 20.6075 2.45833 19.6438L2.50521 19.524C2.92188 18.5603 3.375 17.6227 3.86458 16.7215C4.34896 15.8307 4.88021 14.9504 5.46354 14.0804C6.03646 13.2313 6.64583 12.4083 7.29688 11.6165C7.94792 10.8247 8.63021 10.0746 9.35417 9.35569C10.0729 8.63682 10.8281 7.94921 11.6146 7.29806C12.4063 6.64692 13.224 6.03744 14.0781 5.46443C14.9479 4.881 15.8281 4.34967 16.7188 3.86521L16.7865 3.83396C17.6875 3.34429 18.599 2.90672 19.526 2.50562C19.5521 2.4952 19.5781 2.48478 19.6042 2.47436C20.5573 2.06804 21.5313 1.71382 22.5208 1.40648C23.5365 1.08872 24.5573 0.82826 25.5833 0.625102Z"
          fill="black" />
</svg>