<svg width="64" height="64" viewBox="0 0 64 64" fill="none" xmlns="http://www.w3.org/2000/svg">
<path fill-rule="evenodd" clip-rule="evenodd" d="M32 0C49.6719 0 64 14.3281 64 32C64 49.6719 49.6719 64 32 64C14.3281 64 0 49.6719 0 32C0 14.3281 14.3281 0 32 0ZM43.3906 33.9792C45.0208 32.9271 45.0156 31.7552 43.3906 30.8229L26.5521 21.1458C25.224 20.3125 23.8385 20.8021 23.875 22.5365L23.9271 42.0938C24.0417 43.974 25.1146 44.4896 26.6979 43.6198L43.3906 33.9792ZM32 6.5C46.0833 6.5 57.5 17.9167 57.5 32C57.5 46.0833 46.0833 57.5 32 57.5C17.9167 57.5 6.5 46.0833 6.5 32C6.5 17.9167 17.9167 6.5 32 6.5Z" fill="black"/>
</svg>
