<svg width="64"
     height="64"
     viewBox="0 0 64 64"
     fill="none"
     xmlns="http://www.w3.org/2000/svg">
    <path fill-rule="evenodd"
          clip-rule="evenodd"
          d="M32 0C49.6719 0 64 14.3281 64 32C64 49.6719 49.6719 64 32 64C14.3281 64 0 49.6719 0 32C0 14.3281 14.3281 0 32 0Z"
          fill="#EF4136"
          class="path-red" />
    <path fill-rule="evenodd"
          clip-rule="evenodd"
          d="M41.2292 24.0833C40.0208 22.6875 40.1719 20.5781 41.5677 19.3698C42.9635 18.1615 45.0729 18.3125 46.2813 19.7083C47.7344 21.3906 48.8906 23.3333 49.6823 25.4583C50.4531 27.5313 50.875 29.7448 50.875 32.0313C50.875 37.2448 48.7604 41.9636 45.3438 45.3802C41.9271 48.7969 37.2135 50.9115 32 50.9115C26.7865 50.9115 22.0677 48.7969 18.651 45.3802C15.2344 41.9636 13.125 37.2448 13.125 32.0313C13.125 29.7813 13.5312 27.6042 14.2708 25.5729C15.0312 23.4896 16.1562 21.5677 17.5677 19.8906C18.7552 18.4792 20.8594 18.2969 22.2708 19.4844C23.6823 20.6719 23.8646 22.7761 22.6771 24.1875C21.776 25.2604 21.0521 26.4948 20.5573 27.8542C20.0885 29.1406 19.8333 30.5469 19.8333 32.0313C19.8333 35.3906 21.1979 38.4375 23.3958 40.6406C25.599 42.8438 28.6406 44.2031 32 44.2031C35.3594 44.2031 38.4063 42.8386 40.6042 40.6406C42.8021 38.4427 44.1719 35.3958 44.1719 32.0313C44.1719 30.5156 43.9063 29.0886 43.4271 27.7917C42.9167 26.4271 42.1719 25.1719 41.2292 24.0833Z"
          fill="white" />
    <path fill-rule="evenodd"
          clip-rule="evenodd"
          d="M35.3541 25.5833C35.3541 27.4323 33.8541 28.9375 31.9999 28.9375C30.151 28.9375 28.6458 27.4375 28.6458 25.5833V15.5885C28.6458 13.7396 30.1458 12.2344 31.9999 12.2344C33.8489 12.2344 35.3541 13.7344 35.3541 15.5885V25.5833Z"
          fill="white" />
</svg>