<svg width="64" height="64" viewBox="0 0 64 64" fill="none" xmlns="http://www.w3.org/2000/svg">
<path fill-rule="evenodd" clip-rule="evenodd" d="M64 6.43229V11.9219C64 12.5938 63.3664 13.1458 62.5915 13.1458H40.7625C39.2755 16.2292 36.1077 18.3594 32.4372 18.3594C28.772 18.3594 25.6042 16.2292 24.1172 13.1458H1.40849C0.638796 13.1458 0 12.5938 0 11.9219V6.43229C0 5.76042 0.63356 5.20833 1.40849 5.20833H24.1172C25.6042 2.125 28.772 0 32.4372 0C36.1024 0 39.2702 2.13021 40.7573 5.20833H62.5863C63.3664 5.20833 64 5.76042 64 6.43229ZM25.955 58.7917C24.468 61.875 21.3002 64 17.6297 64C13.9645 64 10.7967 61.875 9.30966 58.7917H1.40849C0.63356 58.7917 0 58.2396 0 57.5677V52.0781C0 51.4063 0.63356 50.8542 1.40849 50.8542H9.30966C10.7967 47.7708 13.9645 45.6406 17.6297 45.6406C21.2949 45.6406 24.4627 47.7708 25.9498 50.8542H62.5863C63.3612 50.8542 63.9948 51.4063 63.9948 52.0781V57.5677C63.9948 58.2396 63.356 58.7917 62.5863 58.7917H25.955ZM54.5175 36.3177C53.0305 39.401 49.8627 41.5313 46.1975 41.5313C42.5323 41.5313 39.3645 39.401 37.8722 36.3177H1.40849C0.638796 36.3177 0 35.7656 0 35.0938V29.6094C0 28.9375 0.63356 28.3854 1.40849 28.3854H37.8722C39.3592 25.3021 42.527 23.1771 46.1923 23.1771C49.8575 23.1771 53.0253 25.3073 54.5123 28.3854H62.5863C63.3612 28.3854 63.9948 28.9375 63.9948 29.6094V35.0938C63.9948 35.7656 63.3612 36.3177 62.5863 36.3177H54.5175Z" fill="black"/>
</svg>
