<svg width="64" height="64" viewBox="0 0 64 64" fill="none" xmlns="http://www.w3.org/2000/svg">
<path d="M32 0C40.835 0 48.8375 3.58257 54.6275 9.37268C60.4175 15.1628 64 23.1655 64 32.0006C64 40.8358 60.4175 48.8372 54.6275 54.6273C48.8375 60.4174 40.835 64 32 64C23.165 64 15.1625 60.4174 9.3725 54.6273C3.5825 48.8372 0 40.8358 0 32.0006C0 23.1655 3.5825 15.1628 9.3725 9.37268C15.1625 3.58257 23.165 0 32 0ZM22.8512 21.8629H41.1475C41.7487 21.8629 42.24 22.3654 42.24 22.9567V41.0421C42.24 41.6333 41.74 42.1346 41.1475 42.1346H22.8512C22.26 42.1346 21.76 41.6446 21.76 41.0421V22.9567C21.76 22.3554 22.2512 21.8629 22.8512 21.8629ZM51.5938 12.4065C46.58 7.39389 39.6512 4.29133 32 4.29133C24.3488 4.29133 17.42 7.39389 12.4062 12.4065C7.39375 17.4203 4.29125 24.3492 4.29125 32.0006C4.29125 39.652 7.39375 46.5797 12.4062 51.5935C17.42 56.6061 24.3488 59.7087 32 59.7087C39.6512 59.7087 46.58 56.6061 51.5938 51.5935C56.6062 46.5797 59.7088 39.652 59.7088 32.0006C59.7088 24.3492 56.6062 17.4203 51.5938 12.4065Z" fill="black"/>
</svg>
